<svg xmlns="http://www.w3.org/2000/svg" width="628" height="742" viewBox="0 0 628 742">
  <g fill="none" transform="matrix(-1 0 0 1 625 3)">
    <g opacity=".495" transform="translate(126 102)">
      <path stroke="#99DFBE" stroke-linecap="round" stroke-width="2" d="M63,236.800995 C56.8697436,226.010503 52.9446154,218.824212 51.2246155,215.242123 C44.6092308,201.112769 20.2646154,199.189055 20,199.189055"/>
      <path stroke="#99DFBE" stroke-linecap="round" stroke-width="5" d="M306,566 C305.006682,566 237.886898,550.561812 155.24283,521.810283 C72.5987622,493.058753 63.1953506,447.783355 57.5003265,420.618116 L56.970557,418.436964 C51.4079754,391.998776 62.6688939,313.368733 63,309.931769"/>
      <path stroke="#99DFBE" stroke-linecap="round" stroke-linejoin="round" stroke-width="2" d="M59.5842874,319 C55.6651489,312.023927 51,302.059045 51,296.725842 C51.9246218,289.843541 55.4295882,283 59.2515633,278.03146 C60.665341,275.897715 61.9540277,273.684279 63.1111653,271.402247 C64.4999649,268.188087 64.9162756,264.639843 64.3089728,261.193258 L64.3089728,260"/>
      <path stroke="#99DFBE" stroke-linecap="round" stroke-width="2" d="M57.7902769,279.85545 C57.7902769,279.85545 49.8799727,253.611871 45.7825693,243.099599 C40.6311059,233.466382 32.8351416,225.50657 23.3129368,220.157722 C20.735003,218.364062 18.4971289,216.125247 16.7042214,213.54623 C14.9859554,211.232208 14.391171,210.438829 11.813772,211.232208 C5.07740695,211.828452 0.0548946296,217.705204 0.512868581,224.455192 L1.28575992,226.76517"/>
      <path stroke="#99DFBE" stroke-linecap="round" stroke-width="2" d="M19 224.986622C13.8761245 236.290893 9.43855195 247.887888 5.71096346 259.715719 3.05315615 270.502787 1.25913621 282.86845 1.25913621 283M14.0342368 346C17.5111608 352.069187 20.3274249 358.501826 22.4336662 365.185166 23.7588706 371.795896 28.9800903 376.893044 35.5577747 377.997405 42.8611322 378.886204 50.2662416 378.299532 57.3437948 376.271406M58.8828625 336C56.1567158 335.987181 53.5811374 334.750287 51.869845 332.632077 51.2836157 332.024584 50.7314376 331.385244 50.2158314 330.716983 47.8347572 327.614429 45.0540859 324.83892 41.9457633 322.462264 37.594908 319.800816 32.9840297 317.58816 28.1843702 315.858492 22.100052 313.808965 17.4527513 308.847819 15.8123485 302.650945 15.6088062 300.944266 15.2319589 299.262664 14.6876192 297.632076 12.7028029 289.839623 9.99022062 279.075472 14.290656 273.990566 18.5910913 268.90566 30.0368655 259.330189 34.8004247 259M1.25414365 306C3.74178767 312.053279 8.49422336 316.914171 14.5138122 319.562275L18.8895028 321.142348C25.519337 323.314944 26.2486188 323.907473 28.3701657 330.68861 29.4205805 334.744945 31.7423238 338.364677 35 341.024911"/>
      <path fill="#99DFBE" d="M290.210451 242.885459C280.061471 237.120882 268.759883 233.629172 257.101227 232.656116 247.963082 231.082371 238.427625 227.541445 229.686791 231.082371 221.412091 234.085582 212.58235 235.293143 203.795378 234.623298 199.822271 233.836425 202.206135 228.721754 213.330834 224.787392 224.455533 220.853029 246.440058 222.426774 254.717363 220.459593 262.994669 218.492412 292.925407 223.213647 302.858174 227.541445 312.790941 231.869244 323.91564 233.442989 327.094127 236.590479 330.27261 239.737969 341 242.492022 341 245.705085 340.204701 249.304994 338.888837 252.772382 337.093112 256 337.093112 256 302.527082 250.885329 290.210451 242.885459zM435.3126 258.290358C436.49474 263.874036 452.256645 263.874036 458.16736 261.481031 464.125851 260.152427 470.283642 260.016936 476.293549 261.082197 476.293549 261.082197 485.750692 250.712511 482.204264 243.533497 478.657836 236.354483 480.234026 242.270522 470.382837 242.669356 460.531644 243.06819 458.955455 244.729999 453.438788 244.729999 449.807812 244.794694 446.212587 245.468564 442.799504 246.72417 436.232043 250.712511 434.130456 252.706681 435.3126 258.290358z"/>
      <path stroke="#99DFBE" stroke-linecap="round" stroke-width="5" d="M384.518055,423 L383,418.505037 C383.848175,418.100542 384.627693,417.565208 385.310088,416.918581 C387.332594,414.985746 389.882311,413.697457 392.636364,413.216846 C394.880448,413.216846 396.266502,411.762594 399.236611,409.184602 C399.896636,408.523578 400.622665,407.796453 401.480698,407.069326 C406.898543,402.892015 410.73853,396.995125 412.371109,390.345423 C412.613449,384.18067 411.078236,378.076412 407.948941,372.762192 C406.773345,370.3422 405.759089,367.846884 404.912828,365.292625 C403.526774,360.863765 401.546699,348.172107 399.500623,334.753324 C398.048569,325.16848 396.53051,314.922613 395.342465,309.502217 C394.814444,306.924225 394.220423,304.478434 393.692402,302.164853 C391.316314,291.918984 389.270235,283.061266 393.098381,274.269649 C397.784557,263.627166 429.201744,259.661024 435.471979,259"/>
      <path stroke="#99DFBE" stroke-linecap="round" stroke-width="2" d="M370.362427 410C363.279 403.398292 354.520798 398.944192 345.078301 397.141426 331.977718 395.342559 330.536654 397.141426 330.405646 397.607799 330.219546 398.067953 330.421313 398.595675 330.864169 398.807045M329 405C326.750853 404.899864 324.547905 404.316084 322.535732 403.286968 318.52789 401.508051 312.51612 397.423132 307.15078 382.862369 301.785439 368.30161 316.911823 360.065884 317.105749 360"/>
      <path stroke="#99DFBE" stroke-linecap="round" stroke-width="2" d="M403 403.818505C399.662794 406.51949 396.439507 407.678347 390.994004 407.678347 382.550226 407.678347 368.513098 399.1068 365.068966 397.835754 355.08318 394.093389 344.551098 391.921969 333.866566 391.402685 327.575115 391.209722 321.277614 391.338562 315 391.78867M231.97097 433.734844L230 432.342764C233.482047 427.238479 246.818946 416.499597 273.295645 397.408245 289.498116 384.918157 303.283681 369.525633 313.963329 352M408.937294 401C414.819517 409.714627 419.190349 419.429848 421.852584 429.707316 423.798944 438.442447 423.260518 447.57673 420.30275 456M398 456.879477C397.537397 456.879477 385.9723 462.807815 381.610605 464.371335 377.638865 465.216435 373.553514 465.414496 369.516818 464.957653 367.097717 464.762112 364.666434 464.762112 362.24733 464.957653L346.584885 465.869704 342.024932 466C338.944885 465.808087 335.913313 465.148865 333.0372 464.045602 328.544453 462.325831 323.77953 461.399628 318.960824 461.309446 312.087371 461.05887 305.251781 460.186587 298.540166 458.703582 294.178473 457.856676 290.015038 457.00977 285.917689 456.553744 278.47641 455.358245 271.140738 453.593966 263.977048 451.276872 260.293354 450.010962 256.514933 449.030777 252.676296 448.345275 248.909379 448.345275 231.660863 451.86319 231.462604 451.86319"/>
      <path stroke="#99DFBE" stroke-linecap="round" stroke-width="2" d="M265.942466 451.775609C265.942466 451.775609 288.062937 451.311557 306.059709 449.743719 322.733189 448.306533 331.93007 447.391958 335.039806 447 337.466688 447.434682 339.742772 448.468417 341.656268 450.005024 344.077593 452.016338 346.963671 453.407447 350.059171 454.055276 354.153757 453.7827 358.222692 453.215025 362.233459 452.356785 365.409361 451.834171 368.849918 451.246233 371.43034 450.919599 375.428966 450.66768 379.433336 451.315454 383.141473 452.814071 384.639352 453.447033 386.543853 452.796288 388.161718 452.986555 391.866938 452.986555 393.124064 456.710173 393.322559 458.735301M391.463714 466.392113C393.928178 469.463165 394.652081 473.537898 393.391138 477.241299 391.796029 483.73782 385.681437 485.556843 379.23453 487.440836L376.576011 488.220418C375.326483 488.58833 373.951398 489.082876 372.721162 489 370.490121 488.849704 369.073606 488.741571 367.889454 488.585194 365.830136 488.313245 346.954177 483.820398 339.888466 483.477957 335.036579 483.302767 330.183195 483.783727 325.466004 484.907191 317.06075 486.702737 308.394245 487.010779 299.877769 485.816706 283.813986 483.749756 269.360633 475.226079 260 462.299304M323.280215 282C323.280215 282 304.03187 261.591922 262.558629 262.376848 222.143716 263.096364 217.182802 271.076445 217.182802 271.141856"/>
      <path stroke="#99DFBE" stroke-linecap="round" stroke-width="2" d="M318.849753 290L318.849753 287.84772C319.715646 287.84772 319.915469 286.86941 319.982078 286.543307 320.048683 286.217204 319.982078 284.847571 319.249395 284.651909L316.851532 283.6736C312.82067 281.721562 308.468202 280.484963 303.996313 280.021245 300.602598 279.37262 297.354455 278.135752 294.404855 276.368891 284.657465 270.876514 273.674339 267.829416 262.433329 267.498887 249.865098 266.994782 237.385092 269.762889 226.26554 275.521023M299 303.571427C289.417927 309.730161 278.367658 312.995479 267.092466 313.000072 255.817274 313.004521 278.367659 312.79503 267.092466 312.79503L262.34589 312.79503C241.579623 311.155277 222.791096 293.52795 222 292.776397M285 287.011718C280.907332 287.722221 276.764759 288.050768 272.618984 287.993655 267.950837 287.929345 277.091004 287.973184 272.42246 287.993655 267.231499 288.016417 262.051743 287.475929 256.962567 286.380473 249.702328 284.554039 242.666876 281.823421 236 278.244427"/>
      <path fill="#99DFBE" d="M263,276 C263,273.238576 260.761424,271 258,271 C255.238576,271 253,273.238576 253,276 C253,278.761424 255.238576,281 258,281 C260.761424,281 263,278.761424 263,276 Z M271.954894,268.620767 C275.228657,274.449325 274.524302,281.670626 270.184316,286.773355 C265.20611,287.318549 260.16792,286.877766 255.363928,285.476742 C250.469318,284.297431 245.767154,282.442335 241.39604,279.966135 C241.135591,278.81695 241.003645,277.642955 241.002578,276.465278 C240.962683,274.158462 241.386182,271.866746 242.24854,269.722888 L257.921428,267 L271.561432,268.685598 L271.954894,268.620767 Z"/>
      <path stroke="#99DFBE" stroke-linecap="round" stroke-width="2" d="M394 286.301344C402.374153 282.892089 411.163504 280.630346 420.133335 279.576516 431.005024 278.135614 442.061131 279.405575 452.333335 283.275172 455.051361 284.230147 457.390075 286.046668 459 288.453289M452 295.806547C452 298.713678 445.371428 301.747204 435.892571 301.747204 426.178579 301.747204 445.634659 302.860536 435.958858 302 426.048846 301.118634 416.355103 298.706681 407.257145 294.858569L406.196572 294.41618C402.212279 293.469295 398.092545 293.149089 394 293.468202"/>
      <path stroke="#99DFBE" stroke-linecap="round" stroke-width="2" d="M438.666667 280C443.636249 281.000076 448.247281 283.392591 452 286.918239L454 290.031447M295.497371 277C296.167543 279.172578 296.167543 281.494088 295.497371 283.666667 294.959314 285.533333 294.354 286.6 293.479657 287L292.807085 287"/>
      <path fill="#99DFBE" d="M419,294 C421.761423,294 424,291.537566 424,288.5 C424,285.462434 421.761423,283 419,283 C416.238577,283 414,285.462434 414,288.5 C414,291.537566 416.238577,294 419,294 Z M432.174829,279.272997 C436.963993,286.578295 435.531394,296.475861 428.885265,302 L402.568759,293.332344 C401.643762,289.719461 401.851142,285.894946 403.16088,282.412463 C403.16088,282.412463 413.226943,280.364985 418.556035,279.955489 L432.174829,279 L432.174829,279.272997 Z"/>
      <path stroke="#99DFBE" stroke-linecap="round" stroke-width="2" d="M449.000184 318.191749C449.002074 319.040553 448.666297 319.85535 448.066655 320.456585 444.554575 323.102145 440.178409 324.33789 435.799993 323.920448L435.599992 323.25432C422.866661 323.25432 403.799999 310.398061 403 309.931769M377.891529 359C378.487278 364.037463 376.501453 365.628243 375.045182 366.423632 374.536183 366.714196 374.104739 367.123478 373.787491 367.616713 372.706805 369.342883 371.465665 370.962953 370.08062 372.455331 368.013327 374.633858 366.192958 377.034615 364.652699 379.613831 363.792175 381.337176 361.673962 382 359.026196 382 354.404267 382 363.694221 382.231719 359.092391 381.801152 352.524984 381.186677 346.105081 379.484364 340.09467 376.763689 332.341539 374.993027 324.273144 375.152333 316.595746 377.227666M364.741362 501C360.764622 500.532874 356.897962 499.358808 353.315323 497.530613 350.857395 496.510204 348.266608 495.421767 345.742249 494.605441 340.453066 492.961544 334.770498 493.250095 329.666076 495.421767L326.078831 496.510204C316.911424 498.959183 292.863596 493.653061 292 493.448979M171.357534 257C169.575853 246.329435 174.458978 234.134503 185.874931 220.746589 192.473748 212.992203 211.214388 207.491228 226.193703 203.183236 233.310697 201.641256 240.175245 199.097627 246.584048 195.62768 251.995077 190.192982 253.974723 183.101365 254.568616 166.598441 255.224887 157.911555 256.953837 149.340305 259.715693 141.081872 262.452967 132.195739 264.504668 123.111038 265.852593 113.908382 268.888049 91.3079924 262.091267 58.7660821 258.461918 54.5906433"/>
      <path stroke="#99DFBE" stroke-linecap="round" stroke-width="5" d="M54,222.532704 C60.3204718,231.019066 66.1752715,239.841368 71.5386067,248.960747 C72.2078606,250.791319 73.9547,252.006729 75.9067129,252.001137 L76.3699966,252.001137 C83.1558539,252.001137 69.6686583,252.803364 76.3699966,251.735692 C83.071335,250.66802 88.7623045,246.257595 91.4598172,240.041282 C93.3927542,235.866382 94.6226252,231.401781 95.0999052,226.827261 C95.9852654,219.600901 97.994951,212.556752 101.056413,205.949107 C104.033471,198.586472 108.39136,191.859006 113.895997,186.128074 C116.08005,183.48527 118.528837,180.908536 121.639458,176.878259 C127.868816,169.540185 135.523792,163.539069 144.141821,159.23754 C146.789158,157.651858 149.304128,156.198315 152.216199,154.216212 C155.12827,152.234109 157.709423,150.714496 159.95966,149.393094 C165.982351,145.759238 170.01954,143.314644 171.078474,138.491527 C171.578382,136.980268 172.415721,135.602153 173.527261,134.46125 C177.710149,130.372264 179.062228,124.194498 176.968799,118.736564 C175.693702,115.42028 174.144063,112.215809 172.33596,109.156398 C167.784877,103.057999 165.834029,95.4104711 166.908919,87.8818235 C167.570753,84.9747388 168.034037,82.4640748 168.497321,80.2837611 C168.709873,74.6447992 171.078277,69.3013717 175.115663,65.3519168 L177.895367,62.9073226 C180.612886,60.8004752 182.546517,57.8468527 183.388591,54.5164191 C183.719508,53.6575075 184.182792,52.6003859 184.646076,51.3450539 C188.581755,41.1694776 196.281719,32.8914065 206.155688,28.2205161 L211.648912,25.4455713 C220.318941,20.8206638 226.606366,17.4510883 235.805862,24.9170106 C243.350772,30.5990398 245.270091,31.0615306 249.042546,31.5240212 C253.282132,32.0834708 257.411135,33.2866298 261.286479,35.0918071 C271.015442,38.9238735 274.390797,36.5453495 277.633785,33.5061245 C279.685471,31.3258111 280.876772,30.2026191 286.700913,33.5061245 C291.49716,36.6085901 297.263956,37.8539652 302.915852,37.0078403 C308.364725,36.29534 313.872159,37.7947963 318.204221,41.170257 C323.924022,45.3393315 331.047085,47.1170483 338.059249,46.1255152 C341.908462,45.3389387 345.912898,46.1241778 349.178064,48.3058289 C353.661514,51.1492538 359.387336,51.1492538 363.870783,48.3058289 C368.106525,46.3897957 370.95241,45.1344637 376.048534,51.3450539 C380.635913,57.0346553 386.807484,61.2416103 393.785692,63.4358836 C398.148916,64.5056354 401.937335,67.2002623 404.375039,70.9678759 C405.445705,73.0908928 407.45739,74.5848279 409.80208,74.9981523 C413.375984,75.5267133 416.023321,72.3553481 419.067758,68.9197024 C422.112197,65.484057 424.428617,63.105533 426.149385,64.0965845 C432.039709,67.2018796 435.944531,62.3126918 438.260951,59.339537 C438.98897,58.4145553 440.445005,56.4985221 440.97447,56.4985221 L441.173021,56.4985221 C442.744503,57.8355333 444.73405,58.5832567 446.798613,58.6127657 C448.320833,58.6788358 449.776867,58.7449059 454.939173,66.6733189 C457.321778,70.2411048 458.910179,72.4874883 460.167663,74.0731709 C462.748816,77.3106063 462.748816,77.3106063 462.748816,83.4551263 L462.748816,87.4854028 C463.071919,91.1569102 462.826367,94.8561967 462.0208,98.4530407 C461.292781,101.029775 462.0208,101.888686 464.072485,103.93686 C466.572802,107.362449 470.332621,105.035974 471.327777,109.156398"/>
      <path stroke="#99DFBE" stroke-linecap="round" stroke-width="2" d="M226.085864 17.2219873C217.296285 7.3275724 204.990584 1.40715334 191.895444.77256994 167.275701-1.10736347 148.596378 4.73385821 141.005841 11.3807656 138.761682 13.3278395 136.055491 15.4763348 133.21729 17.7591112 126.616822 23.19749 118.036215 29.911538 117.640187 33M265.942466 544C265.942466 544 249.815068 535.878009 230.118493 523.331843 211.67774 511.512032 177.241781 488.070509 146.705479 466.147736 123.811243 451.09722 99.4521475 438.398401 74 428.245106"/>
    </g>
    <path stroke="#99DFBE" stroke-linecap="round" stroke-linejoin="round" stroke-width="6" d="M408.615602,735.884819 C410.462373,727.865978 414.049707,720.351468 419.123428,713.873714 C421.039949,710.833142 423.088646,707.726469 424.872993,704.619797 C428.390024,696.409404 429.95109,687.493807 429.432992,678.576625 C429.423363,674.989658 429.710723,671.408049 430.292123,667.868518 C432.668755,668.344479 435.009458,668.984981 437.297339,669.785403 C449.986032,673.751366 471.26603,680.42741 486.66429,665.621138 C493.781996,658.090934 499.112724,649.054095 502.260811,639.181372 C503.99607,633.58244 506.727379,628.342707 510.323417,623.714106 C513.987036,620.01396 517.918892,616.589509 522.086893,613.468698 C532.802408,605.647093 542.523024,596.546167 551.032977,586.367937 C569.140803,564.48903 584.076452,503.941963 586.257322,487.747605 C588.438193,471.553248 583.217321,438.966234 580.970365,424.754859 C580.90005,423.190379 580.656237,421.638546 580.243411,420.127902 C580.763904,409.896809 582.562216,399.771054 585.596453,389.986566 C589.365611,385.625152 591.6764,380.193775 592.205146,374.453203 C593.669684,370.796593 595.650383,367.368675 598.086884,364.273892 C601.524924,359.752863 604.306111,354.768036 606.347754,349.467624 C607.627496,343.551891 606.785268,337.374403 603.968626,332.017375 C603.031768,329.875669 602.258538,327.666026 601.655582,325.407435 C601.17967,321.872921 601.404234,318.279268 602.316451,314.831529 C604.4209,302.531729 605.613715,290.093201 605.885146,277.617555 C606.537617,256.04798 603.840021,234.507745 597.888626,213.765518 L605.026015,203.916704 L605.026015,203.454008 C605.488623,201.867622 609.850364,188.383341 610.445145,185.937663 C610.961408,182.126656 611.182356,178.281435 611.106015,174.436364 C611.216573,168.374205 610.796419,162.314 609.850364,156.325123 C609.39048,154.422553 609.256406,152.455771 609.453841,150.508375 C609.58571,149.388555 609.58571,148.257124 609.453841,147.137304 C610.881796,144.856287 612.425856,142.650071 614.079928,140.527363 C616.735204,137.743096 618.962392,134.579893 620.688621,131.141245 C622.208622,126.514286 617.780796,121.160233 615.666014,118.912853 C613.854078,112.592161 611.066916,106.593051 607.405144,101.13211 C605.615292,99.5100222 603.587021,98.1724471 601.391232,97.1661443 C597.293841,94.9848637 591.676452,92.0764893 590.486887,88.5071206 C588.504278,82.6903719 581.036453,78.7905061 575.617323,76.0143306 C574.493845,75.4194358 573.106018,74.6923423 572.445148,74.2296463 C568.084631,66.6192524 562.970221,59.4665854 557.179065,52.8795344 C554.596901,49.8501881 551.42681,47.3766022 547.860805,45.6085985 C545.981986,44.6353883 544.228768,43.4367603 542.639937,42.0392298 C537.877632,37.9477 532.319771,34.8869229 526.316461,33.0497091 C524.86188,32.4379058 523.448993,31.7313282 522.086893,30.9345276 C516.377577,28.0853491 510.508036,25.5693568 504.507766,23.3991939 C497.16746,20.8142607 489.566213,19.0410413 481.839944,18.1112405 L480.055594,18.1112405 C478.648841,17.9790093 477.232785,17.9790093 475.826029,18.1112405 C473.579074,18.1112405 472.918204,18.1112405 472.323423,17.4502464 C470.208641,15.335065 465.119945,13.8147784 453.686903,11.9639947 L450.448643,11.9639947 C445.203376,11.3571282 440.245739,9.24514324 436.173862,5.88284819 C431.888068,2.75698683 426.3919,1.8041377 421.304298,3.30497091 C418.804113,3.97624846 416.186875,4.08908169 413.638213,3.635468 C405.801466,1.99480788 397.881389,0.781196826 389.912998,0 L384.692129,0.330497091 C379.735607,0.660994178 372.201694,1.18978952 365.526913,1.18978952 C360.424529,1.256784 355.329025,1.58772328 350.260827,2.18128079 C346.687575,2.64514659 343.091302,2.90995289 339.488654,2.97447381 L307.634746,2.97447381 C294.417356,2.97447381 290.914748,5.88284819 289.659096,11.2369011 L289.659096,12.2283923 C289.35424,12.2945771 289.038735,12.2945771 288.733879,12.2283923 C278.146021,16.7894269 268.048944,22.4147374 258.59823,29.0176445 C253.245187,32.3226153 247.165188,36.1563817 245.777362,36.6851768 C241.965109,38.1938687 238.36602,40.1937399 235.071277,42.6341247 C231.024178,45.3294894 226.832381,47.8009097 222.514756,50.0372595 C217.426104,53.0070689 212.942164,56.9088329 209.297366,61.538558 C207.583561,63.7153498 205.582751,65.649832 203.349541,67.2892076 C198.459107,69.7348859 186.761717,77.9312138 186.299108,78.261711 L185.968674,78.261711 C184.514761,79.5175999 172.024327,91.0188984 169.57911,94.0594716 C163.654618,103.812176 159.347335,114.459647 156.824329,125.588894 C155.972186,130.107963 154.688627,134.534862 152.991286,138.808778 C151.584911,142.180054 150.500657,145.676877 149.753026,149.252486 C149.158243,152.293059 148.3652,162.472369 147.439982,173.70927 C146.382591,186.929154 145.193026,201.933722 144.399983,205.701389 C143.60694,209.469055 143.012157,218.921272 142.219113,230.686969 C141.702519,241.979137 140.555222,253.233594 138.782592,264.397672 C136.638434,273.050499 135.507363,281.923321 135.412158,290.837439 C128.589897,294.445955 122.241196,298.886443 116.511291,304.057323 C103.95477,315.558621 112.876508,354.29288 114.79303,361.960412 C117.057212,369.992496 117.885003,378.361475 117.238247,386.681595 L117.238247,399.901478 C117.983092,415.367007 122.039761,430.492219 129.133898,444.254188 C129.133898,447.162562 128.406941,456.48258 128.406941,462.629827 C128.406941,465.7365 126.49042,480.476668 124.441724,496.20833 C122.062594,514.980564 119.286942,536.330678 118.824334,544.989701 C116.581767,560.627905 112.68274,575.983222 107.193031,590.796598 C102.38624,589.872105 97.5326763,589.210133 92.6539019,588.813616 C89.0852069,588.813616 59.6104278,590.003406 58.0243411,590.069503 L55.5130368,590.069503 L37.405213,691.598209 C28.8946487,698.920991 20.8183285,706.733987 13.2173897,714.997404 C8.203522,721.181037 3.77848081,727.81985 0,734.82723"/>
  </g>
</svg>
