<?xml version="1.0" encoding="UTF-8"?>
<svg width="200px" height="239px" viewBox="0 0 200 239" version="1.1" xmlns="http://www.w3.org/2000/svg" xmlns:xlink="http://www.w3.org/1999/xlink">
    <!-- Generator: Sketch 53.2 (72643) - https://sketchapp.com -->
    <title>illustration-pkoenders</title>
    <desc>Created with Sketch.</desc>
    <defs>
        <polygon id="path-1" points="0 0 199.978723 0 199.978723 237.489362 0 237.489362"></polygon>
    </defs>
    <g id="illustration-pkoenders" stroke="none" stroke-width="1" fill="none" fill-rule="evenodd">
        <g id="illustration-pete">
            <g id="Clipped">
                <mask id="mask-2" fill="white">
                    <use xlink:href="#path-1"></use>
                </mask>
                <g id="Path"></g>
                <g id="Group" mask="url(#mask-2)" fill="#FFFFFF" fill-rule="nonzero">
                    <g transform="translate(38.297872, 27.659574)">
                        <path d="M20.8723404,78.7234043 L20.106383,78.7234043 C20.0815579,77.5667464 19.7028519,76.4454798 19.0212766,75.5106383 C18.5531915,74.6808511 17.9148936,73.5319149 17.0851064,71.8085106 C14.9574468,67.2765957 7.12765957,66.6595745 7.04255319,66.6595745 L7.04255319,65.9574468 C7.38297872,65.9574468 15.3404255,66.5957447 17.6808511,71.5319149 C18.5106383,73.2553191 19.1489362,74.3829787 19.5957447,75.212766 C20.3850006,76.2412228 20.8315206,77.4914786 20.8723404,78.787234" id="Path"></path>
                        <path d="M109.723404,188.404255 C109.404255,188.404255 77.2765957,179.893617 50.7234043,170.638298 C24.1702128,161.382979 21.1489362,146.808511 19.3191489,138.06383 L19.1489362,137.361702 C17.3617021,128.851064 19.9148936,102.595745 20.0212766,101.489362 L21.5531915,101.638298 C21.5531915,101.914894 18.9148936,128.829787 20.6382979,137.06383 L20.787234,137.744681 C22.5531915,146.12766 25.4893617,160.148936 51.212766,169.212766 C77.7021277,178.531915 109.765957,186.829787 110.085106,186.914894 L109.723404,188.404255 Z" id="Path"></path>
                        <path d="M19.7659574,105.425532 C18.5128791,103.186547 17.5885124,100.778895 17.0212766,98.2765957 C17.3169088,96.0677069 18.2315804,93.9875667 19.6595745,92.2765957 C20.111606,91.5917656 20.5236418,90.881359 20.893617,90.1489362 C21.3376622,89.1173449 21.4707705,87.9785288 21.2765957,86.8723404 L21.2765957,86.4893617 L22.0425532,86.4893617 L22.0425532,86.8510638 C22.2580718,88.1232504 22.1029645,89.4305833 21.5957447,90.6170213 C21.2167126,91.3575742 20.782881,92.0687736 20.2978723,92.7446809 C18.9859151,94.3256609 18.1192643,96.2278859 17.787234,98.2553191 C18.3452283,100.643389 19.2331957,102.942078 20.4255319,105.085106 L19.7659574,105.425532 Z" id="Path"></path>
                        <path d="M19.1489362,92.4042553 C19.1489362,92.4042553 16.8510638,84.2340426 15.5319149,80.8510638 C13.873414,77.7509757 11.3635226,75.1894101 8.29787234,73.4680851 C7.46791293,72.890863 6.74743491,72.1703849 6.17021277,71.3404255 C5.61702128,70.5957447 5.42553191,70.3404255 4.59574468,70.5957447 C2.42698864,70.7876234 0.810003229,72.6788344 0.957446809,74.8510638 L0.957446809,75.3191489 L0.191489362,75.3191489 C0.0223085476,74.0744398 0.355900866,72.8136088 1.11850712,71.8154331 C1.88111338,70.8172573 3.00991203,70.163964 4.25531915,70 C5.61702128,69.5957447 6.10638298,70.2553191 6.68085106,71.0425532 C7.19929124,71.7916967 7.85654328,72.4345036 8.61702128,72.9361702 C11.811075,74.7445605 14.4181018,77.432826 16.1276596,80.6808511 C17.4680851,84.0212766 19.7659574,92.1276596 19.787234,92.212766 L19.1489362,92.4042553 Z" id="Path"></path>
                        <path d="M1.23404255,93.6170213 L0.468085106,93.6170213 C0.468085106,93.6170213 1.06382979,89.5319149 1.91489362,86 C3.08936327,82.1258184 4.51071114,78.3308196 6.17021277,74.6382979 L6.87234043,74.9574468 C5.23161007,78.6141114 3.8106427,82.3654653 2.61702128,86.1914894 C1.76595745,89.6808511 1.19148936,93.6808511 1.19148936,93.7234043" id="Path"></path>
                        <path d="M13.8723404,125.361702 C13.1989278,125.386832 12.5253941,125.31518 11.8723404,125.148936 C9.47346021,124.706829 7.58100251,122.856426 7.08510638,120.468085 C6.39924105,118.408881 5.51568958,116.42089 4.44680851,114.531915 L5.10638298,114.148936 C6.23372975,116.094139 7.14686626,118.15583 7.82978723,120.297872 C8.2594673,122.416642 9.95237896,124.050302 12.0851064,124.404255 C14.4531238,124.689119 16.8541329,124.501088 19.1489362,123.851064 L19.3617021,124.574468 C17.6045145,125.047349 15.7977375,125.311581 13.9787234,125.361702" id="Path"></path>
                        <path d="M19.4893617,110.87234 C18.6126591,110.86821 17.7843778,110.469697 17.2340426,109.787234 C17.0455169,109.591507 16.8679417,109.385519 16.7021277,109.170213 C15.9363971,108.170606 15.0421599,107.276369 14.0425532,106.510638 C12.6433599,105.65315 11.1605457,104.940258 9.61702128,104.382979 C7.66036298,103.722645 6.16583568,102.124221 5.63829787,100.12766 C5.57284064,99.5777877 5.45165017,99.035995 5.27659574,98.5106383 C4.63829787,96 3.76595745,92.5319149 5.14893617,90.893617 C6.53191489,89.2553191 10.212766,86.1702128 11.7446809,86.0638298 L11.7446809,86.8297872 C9.39699212,87.8744047 7.33802184,89.4733923 5.74468085,91.4893617 C4.59574468,92.8297872 5.44680851,96.1914894 6.0212766,98.4042553 C6.19148936,99.0851064 6.34042553,99.6595745 6.40425532,100.085106 C6.91196813,101.78998 8.21144026,103.144917 9.89361702,103.723404 C11.4885438,104.270963 13.0217311,104.984073 14.4680851,105.851064 C15.5341495,106.654801 16.4861123,107.599606 17.2978723,108.659574 L17.8085106,109.276596 C18.3171635,109.910998 19.1429189,110.200013 19.9361702,110.021277 L20.1702128,110.744681 C19.923916,110.788458 19.6718287,110.788458 19.4255319,110.744681" id="Path"></path>
                        <path d="M11.7659574,113.12766 C10.510963,112.208854 9.60961824,110.886881 9.21276596,109.382979 C8.61702128,107.489362 8.5106383,107.446809 6.63829787,106.787234 L5.21276596,106.255319 C3.06171564,105.344069 1.36205821,103.613787 0.489361702,101.446809 L1.21276596,101.170213 C2.01110562,103.126477 3.53626672,104.697392 5.46808511,105.553191 L6.87234043,106.06383 C9,106.765957 9.23404255,106.957447 9.91489362,109.148936 C10.2519948,110.459839 10.9970933,111.629643 12.0425532,112.489362 L11.7659574,113.12766 Z" id="Path"></path>
                        <path d="M109.234043,85.106383 C109.234043,85.106383 98.1276596,83.4468085 94.1702128,80.8510638 C90.9092523,78.9806123 87.2779483,77.8476454 83.5319149,77.5319149 C80.5957447,77.0212766 77.5319149,75.8723404 74.7234043,77.0212766 C72.0646671,77.9957383 69.2275901,78.3875596 66.4042553,78.1702128 C65.1276596,77.9148936 65.893617,76.2553191 69.4680851,74.9787234 C73.0425532,73.7021277 80.106383,74.212766 82.7659574,73.5744681 C85.4255319,72.9361702 95.0425532,74.4680851 98.2340426,75.8723404 C101.425532,77.2765957 105,77.787234 106.021277,78.8085106 C107.042553,79.8297872 110.489362,80.7234043 110.489362,81.7659574 C110.233825,82.934032 109.811026,84.0591069 109.234043,85.106383" id="Path"></path>
                        <path d="M143.234043,82.1489362 C141.106383,83.4255319 140.425532,84.0638298 140.808511,85.8510638 C141.191489,87.6382979 146.297872,87.6382979 148.212766,86.8723404 C150.143138,86.4470781 152.138077,86.4037099 154.085106,86.7446809 C154.085106,86.7446809 157.148936,83.4255319 156,81.1276596 C154.851064,78.8297872 155.361702,80.7234043 152.170213,80.8510638 C148.978723,80.9787234 148.468085,81.5106383 146.680851,81.5106383 C145.504524,81.531346 144.339779,81.7470395 143.234043,82.1489362" id="Path"></path>
                        <path d="M124.553191,138.702128 L124.06383,137.255319 C124.337248,137.125123 124.588534,136.952813 124.808511,136.744681 C125.460487,136.122553 126.282415,135.707887 127.170213,135.553191 C127.893617,135.553191 128.340426,135.085106 129.297872,134.255319 C129.510638,134.042553 129.744681,133.808511 130.021277,133.574468 C131.767776,132.229903 133.005636,130.331851 133.531915,128.191489 C133.610036,126.207219 133.115144,124.242421 132.106383,122.531915 C131.727417,121.752984 131.400461,120.949808 131.12766,120.12766 C130.680851,118.702128 130.042553,114.617021 129.382979,110.297872 C128.914894,107.212766 128.425532,103.914894 128.042553,102.170213 C127.87234,101.340426 127.680851,100.553191 127.510638,99.8085106 C126.744681,96.5106383 126.085106,93.6595745 127.319149,90.8297872 C128.829787,87.4042553 138.957447,86.1276596 140.978723,85.9148936 L141.148936,87.4468085 C136.893617,87.9148936 129.617021,89.4255319 128.723404,91.4468085 C127.680851,93.8085106 128.276596,96.2978723 129,99.4680851 C129.191489,100.234043 129.361702,101.021277 129.531915,101.851064 C129.93617,103.744681 130.425532,106.957447 130.893617,110.06383 C131.531915,114.12766 132.170213,118.340426 132.595745,119.659574 C132.86024,120.427137 133.165641,121.179988 133.510638,121.914894 C134.660277,123.898868 135.193545,126.180067 135.042553,128.468085 C134.474943,130.948113 133.06043,133.152646 131.042553,134.702128 L130.340426,135.340426 C129.616543,136.256961 128.577476,136.8713 127.425532,137.06383 C126.825205,137.190409 126.276706,137.494307 125.851064,137.93617 C125.494849,138.255266 125.084023,138.507528 124.638298,138.680851" id="Path"></path>
                        <path d="M119.957447,134.680851 C117.656615,132.572597 114.811784,131.150181 111.744681,130.574468 C107.489362,130 107.021277,130.574468 106.978723,130.723404 C106.918274,130.870354 106.983812,131.038882 107.12766,131.106383 L106.510638,131.574468 C106.180254,131.251078 106.102304,130.748731 106.319149,130.340426 C106.489362,130.042553 107.021277,129.148936 111.851064,129.808511 C115.075963,130.378481 118.072078,131.8544 120.489362,134.06383 L119.957447,134.680851 Z" id="Path"></path>
                        <path d="M106.680851,133.12766 C105.940563,133.095323 105.215481,132.906802 104.553191,132.574468 C103.234043,132 101.255319,130.680851 99.4893617,125.978723 C97.7234043,121.276596 102.702128,118.617021 102.765957,118.595745 L103.06383,119.297872 C100.569769,120.331374 99.3180625,123.133702 100.212766,125.680851 C102.12766,130.638298 104.255319,131.531915 104.914894,131.914894 C105.472656,132.173947 106.069307,132.339284 106.680851,132.404255 L106.680851,133.12766 Z" id="Path"></path>
                        <path d="M126.744681,134.042553 C124.021277,134.042553 119.297872,131.340426 118.382979,130.787234 C115.162225,129.549492 111.765272,128.831321 108.319149,128.659574 C106.289943,128.595754 104.258786,128.638366 102.234043,128.787234 L102.234043,128.021277 C104.287206,127.872414 106.346692,127.829804 108.404255,127.893617 C111.979058,128.084713 115.496234,128.875897 118.808511,130.234043 C121.22673,131.814465 123.941463,132.885879 126.787234,133.382979 C127.998133,133.381717 129.171136,132.960639 130.106383,132.191489 L130.617021,132.765957 C129.540659,133.659275 128.186009,134.148454 126.787234,134.148936" id="Path"></path>
                        <path d="M75.3191489,142.170213 L74.6808511,141.723404 C75.8085106,140.085106 80.1276596,136.638298 88.7021277,130.510638 C93.9492909,126.501754 98.4137403,121.561289 101.87234,115.93617 L102.531915,116.319149 C99.0221321,122.062474 94.485627,127.111049 89.1489362,131.212766 C80.7659574,137.212766 76.3829787,140.702128 75.3191489,142.255319" id="Path"></path>
                        <path d="M136.170213,149.340426 L135.446809,149.106383 C136.348351,146.533433 136.481424,143.753687 135.829787,141.106383 C134.980293,137.972883 133.614024,135.003046 131.787234,132.319149 L132.425532,131.893617 C134.363602,134.658025 135.8037,137.739836 136.680851,141 C137.322136,143.770912 137.144736,146.668441 136.170213,149.340426" id="Path"></path>
                        <path d="M110.914894,152.808511 C109.923267,152.745833 108.947247,152.530534 108.021277,152.170213 C106.574829,151.608543 105.040753,151.306049 103.489362,151.276596 C101.276441,151.194759 99.0757104,150.909875 96.9148936,150.425532 C95.5106383,150.148936 94.1702128,149.87234 92.8510638,149.723404 C90.4553304,149.332959 88.0935972,148.756753 85.787234,148 C84.6012619,147.586559 83.3847924,147.266435 82.1489362,147.042553 C80.9361702,147.042553 75.3829787,148.191489 75.3191489,148.191489 L75.1702128,147.446809 C75.4042553,147.446809 80.8510638,146.276596 82.1489362,146.276596 C83.4598039,146.484621 84.7488724,146.812229 86,147.255319 C88.2601434,148.021553 90.5802359,148.598018 92.9361702,148.978723 C94.2978723,149.12766 95.7021277,149.404255 97.0638298,149.659574 C99.1577222,150.155748 101.296063,150.44086 103.446809,150.510638 C105.08575,150.533397 106.707264,150.850493 108.234043,151.446809 C109.141445,151.813233 110.106901,152.01497 111.085106,152.042553 L112.319149,152.042553 L117.340426,151.744681 C118.15478,151.680864 118.97288,151.680864 119.787234,151.744681 C120.995439,151.872857 122.216337,151.808221 123.404255,151.553191 C124.765957,151.042553 128.553191,149.148936 128.595745,149.12766 L128.93617,149.829787 C128.787234,149.829787 125.06383,151.765957 123.659574,152.276596 C122.380865,152.552602 121.065579,152.617288 119.765957,152.468085 C118.987123,152.404222 118.204367,152.404222 117.425532,152.468085 L112.382979,152.765957 L110.893617,152.765957" id="Path"></path>
                        <path d="M126.489362,150.659574 C126.489362,150.659574 126.489362,149.489362 125.595745,149.489362 C124.988174,149.428928 124.392992,149.27834 123.829787,149.042553 C122.743547,148.601772 121.575531,148.398639 120.404255,148.446809 C119.42728,148.525145 118.459042,148.688892 117.510638,148.93617 C116.170697,149.215755 114.812727,149.40061 113.446809,149.489362 C112.289117,149.296835 111.206914,148.788863 110.319149,148.021277 C109.765957,147.659574 109.042553,147.12766 108.787234,147.170213 C107.765957,147.319149 104.787234,147.617021 99.4255319,148.06383 C93.6170213,148.574468 87.8297872,148.595745 87.7659574,148.595745 L87.7659574,147.829787 C87.7659574,147.829787 93.5744681,147.829787 99.3617021,147.319149 C104.723404,146.851064 107.680851,146.553191 108.680851,146.425532 C109.461265,146.567106 110.193187,146.903789 110.808511,147.404255 C111.587138,148.059331 112.515216,148.512409 113.510638,148.723404 C114.827337,148.634627 116.135787,148.449738 117.425532,148.170213 C118.446809,148 119.553191,147.808511 120.382979,147.702128 C121.66882,147.620079 122.956508,147.831056 124.148936,148.319149 C124.63061,148.525302 125.139316,148.661435 125.659574,148.723404 C126.851064,148.723404 127.255319,149.93617 127.319149,150.595745 L126.489362,150.659574 Z" id="Path"></path>
                        <path d="M120.638298,160.106383 C119.338647,160.022838 118.053274,159.787187 116.808511,159.404255 C114.631185,158.781244 112.389586,158.410024 110.12766,158.297872 C108.574439,158.240496 107.020739,158.398014 105.510638,158.765957 C102.819888,159.354012 100.045504,159.454898 97.3191489,159.06383 C92.1766954,158.386888 87.5497844,155.595319 84.5531915,151.361702 L85.1914894,150.93617 C88.0559926,154.936387 92.4282512,157.595089 97.2978723,158.297872 C99.9531961,158.68896 102.657824,158.587987 105.276596,158 C106.867725,157.593414 108.507156,157.407278 110.148936,157.446809 C112.46162,157.55599 114.753689,157.934431 116.978723,158.574468 C118.460448,159.14871 120.063307,159.339004 121.638298,159.12766 L122.489362,158.87234 C124.617021,158.255319 126.106383,157.787234 126.510638,156.085106 C126.856562,155.123592 126.696718,154.052641 126.085106,153.234043 L126.638298,152.702128 C127.42724,153.707921 127.658981,155.042427 127.255319,156.255319 C126.744681,158.382979 124.787234,158.978723 122.723404,159.595745 L121.87234,159.851064 C121.472332,159.971558 121.05599,160.028985 120.638298,160.021277" id="Path"></path>
                        <path d="M104.87234,93.3829787 C104.87234,93.3829787 98.6808511,86.7446809 85.3404255,87 C72.3404255,87.2340426 70.7446809,89.8297872 70.7446809,89.8510638 L70.0425532,89.5106383 C70.1914894,89.212766 71.8085106,86.4893617 85.3404255,86.2340426 C98.8723404,85.9787234 105.170213,92.6170213 105.425532,92.8723404 L104.87234,93.3829787 Z" id="Path"></path>
                        <path d="M103.234043,96.4468085 L103.234043,95.7446809 C103.510638,95.7446809 103.574468,95.4255319 103.595745,95.3191489 C103.617021,95.212766 103.595745,94.7659574 103.361702,94.7021277 L102.595745,94.3829787 C101.308154,93.746175 99.9178314,93.3427655 98.4893617,93.1914894 C97.4052964,92.9798917 96.3677318,92.5763943 95.4255319,92 C92.3118922,90.2082496 88.8035173,89.21421 85.212766,89.106383 C81.198056,88.9419315 77.2115284,89.8449571 73.6595745,91.7234043 L73.2553191,91.0851064 C80.2896279,87.3003157 88.7684657,87.3644885 95.7446809,91.2553191 C96.5879447,91.7815656 97.5168783,92.1560195 98.4893617,92.3617021 C99.9689157,92.5348713 101.408037,92.959412 102.744681,93.6170213 L103.468085,93.9148936 C104.028653,94.1703463 104.337779,94.7797677 104.212766,95.3829787 C104.159359,95.9714246 103.675663,96.4277412 103.085106,96.4468085" id="Path"></path>
                        <path d="M86.6382979,103.276596 L85.106383,103.276596 C78.4042553,102.765957 72.3404255,97.2765957 72.0851064,97.0425532 L72.6170213,96.4893617 C72.6170213,96.4893617 78.7234043,102.12766 85.2553191,102.531915 C89.1967312,102.803038 93.1243743,101.836005 96.4893617,99.7659574 L96.9361702,100.404255 C93.8436416,102.322159 90.2772656,103.339018 86.6382979,103.340426" id="Path"></path>
                        <path d="M88.4255319,95.5957447 C86.7395403,95.6026496 85.057188,95.4386915 83.4042553,95.106383 C81.0461753,94.5523307 78.7611043,93.7239925 76.5957447,92.6382979 L76.9574468,91.9574468 C79.0853733,93.0059873 81.3271365,93.8055971 83.6382979,94.3404255 C86.5124891,94.9142452 89.4650995,94.9790586 92.3617021,94.5319149 L92.5106383,95.2978723 C91.1813654,95.5134048 89.8358834,95.6130701 88.4893617,95.5957447" id="Path"></path>
                        <path d="M83.7021277,93.2553191 C84.6304361,93.2553191 85.3829787,92.5027765 85.3829787,91.5744681 C85.3829787,90.6461597 84.6304361,89.893617 83.7021277,89.893617 C82.7738193,89.893617 82.0212766,90.6461597 82.0212766,91.5744681 C82.0212766,92.5027765 82.7738193,93.2553191 83.7021277,93.2553191 L83.7021277,93.2553191 Z M88.3617021,89 C89.4238824,90.9128579 89.1953527,93.2827963 87.787234,94.9574468 C86.1720431,95.1363724 84.5373901,94.9917129 82.9787234,94.5319149 C81.3906554,94.1448803 79.8650272,93.5360615 78.4468085,92.7234043 C78.3623053,92.3462567 78.3194952,91.9609664 78.3191489,91.5744681 C78.306205,90.8174004 78.4436101,90.0652888 78.7234043,89.3617021 L83.8085106,88.4680851 L88.2340426,89.0212766 L88.3617021,89 Z" id="Shape"></path>
                        <path d="M147.765957,95.6170213 C147.323769,95.023154 146.717202,94.5719277 146.021277,94.3191489 C142.882145,93.131192 139.496596,92.7436453 136.170213,93.1914894 C133.380866,93.4898966 130.641831,94.147837 128.021277,95.1489362 L127.659574,94.4468085 C130.332176,93.3681587 133.137288,92.6525688 136,92.3191489 C139.469688,91.8632638 142.998233,92.2650651 146.276596,93.4893617 C147.144051,93.791505 147.890449,94.3662318 148.404255,95.1276596 L147.765957,95.6170213 Z" id="Path"></path>
                        <path d="M141.12766,100.276596 C137.946713,99.9798727 134.835185,99.1678572 131.914894,97.8723404 L131.574468,97.7234043 C130.295577,97.4046232 128.973212,97.2968216 127.659574,97.4042553 L127.659574,96.6382979 C129.083563,96.4952503 130.521406,96.5887101 131.914894,96.9148936 L132.276596,97.0638298 C135.070731,98.3445706 138.051575,99.1705876 141.106383,99.5106383 C144.170213,99.5106383 145.361702,98.4680851 145.510638,98.1914894 L146.276596,98.1914894 C146.276596,99.1702128 144.148936,100.191489 141.106383,100.191489" id="Path"></path>
                        <path d="M146.361702,96.2765957 L145.723404,95.3191489 C144.565241,94.4883013 143.246293,93.9085438 141.851064,93.6170213 L142.06383,92.893617 C143.649867,93.2011838 145.121473,93.9369865 146.319149,95.0212766 L146.957447,95.9787234 L146.361702,96.2765957 Z" id="Path"></path>
                        <path d="M94.8297872,94.5319149 L94.6382979,94.5319149 L94.9787234,93.8510638 C94.8913144,93.8090356 94.7895367,93.8090356 94.7021277,93.8510638 C94.8230089,93.6721129 94.9029221,93.4686973 94.9361702,93.2553191 C95.0640735,92.7454882 95.0640735,92.2119587 94.9361702,91.7021277 L95.7446809,91.4893617 C95.9566878,92.1827378 95.9566878,92.9236452 95.7446809,93.6170213 C95.5744681,94.212766 95.3829787,94.5531915 95.106383,94.6808511 L94.893617,94.6808511" id="Path"></path>
                        <path d="M135.553191,97.2765957 C136.4815,97.2765957 137.234043,96.5240531 137.234043,95.5957447 C137.234043,94.6674363 136.4815,93.9148936 135.553191,93.9148936 C134.624883,93.9148936 133.87234,94.6674363 133.87234,95.5957447 C133.87234,96.5240531 134.624883,97.2765957 135.553191,97.2765957 Z M139.957447,92.6382979 C141.506241,94.9157128 141.042945,98.001263 138.893617,99.7234043 L130.382979,97.0212766 C130.083839,95.8949661 130.150905,94.7026798 130.574468,93.6170213 C130.574468,93.6170213 133.829787,92.9787234 135.553191,92.8510638 L139.957447,92.5531915 L139.957447,92.6382979 Z" id="Shape"></path>
                        <path d="M140.893617,106.808511 C136.829787,106.808511 130.744681,102.702128 130.489362,102.553191 L130.914894,101.93617 C130.914894,101.93617 137.085106,106.191489 140.87234,106.191489 L141.042553,106.191489 C143.489362,106.191489 144.212766,105.574468 144.404255,105.361702 L144.404255,105.191489 L145.170213,105.191489 C145.170878,105.462603 145.063715,105.722855 144.87234,105.914894 C143.751463,106.759905 142.354814,107.154611 140.957447,107.021277 L140.787234,107.021277" id="Path"></path>
                        <path d="M116.212766,125.531915 C114.101823,125.334669 112.038292,124.788228 110.106383,123.914894 C107.614316,123.346513 105.020915,123.39765 102.553191,124.06383 L102.361702,123.404255 C104.999302,122.72323 107.766655,122.72323 110.404255,123.404255 C113.978723,124.851064 116.93617,125.382979 117.319149,124.595745 C117.827341,123.643363 118.441135,122.751221 119.148936,121.93617 C119.558506,121.509332 119.928797,121.046468 120.255319,120.553191 C120.411552,120.272243 120.639045,120.037412 120.914894,119.87234 C121.319149,119.595745 121.638298,119.382979 121.489362,118.212766 L122.255319,118.212766 C122.446809,119.829787 121.808511,120.340426 121.340426,120.595745 C121.17682,120.689016 121.038142,120.820395 120.93617,120.978723 C120.588808,121.532822 120.189872,122.052863 119.744681,122.531915 C119.080197,123.23122 118.495081,124.001861 118,124.829787 C117.723404,125.382979 117.042553,125.595745 116.191489,125.595745" id="Path"></path>
                        <path d="M118.085106,163.829787 C116.811421,163.683686 115.572993,163.316478 114.425532,162.744681 C113.638298,162.425532 112.808511,162.085106 112,161.829787 C110.305961,161.315632 108.485927,161.405881 106.851064,162.085106 L105.702128,162.425532 C102.765957,163.191489 95.0638298,161.531915 94.787234,161.468085 L94.9361702,160.702128 C94.9361702,160.702128 102.744681,162.404255 105.574468,161.680851 L106.744681,161.361702 C108.514064,160.61956 110.489333,160.529089 112.319149,161.106383 C113.164998,161.373935 113.995967,161.686437 114.808511,162.042553 C115.975809,162.683119 117.285515,163.019691 118.617021,163.021277 L118.808511,163.765957 C118.596279,163.787288 118.382444,163.787288 118.170213,163.765957" id="Path"></path>
                        <path d="M55.9574468,85.2765957 C55.3829787,81.8510638 56.9574468,77.9361702 60.6382979,73.6382979 C62.7659574,71.1489362 68.8085106,69.3829787 73.6382979,68 C75.9330335,67.504984 78.1463728,66.6884122 80.212766,65.5744681 C81.9574468,63.8297872 82.5957447,61.5531915 82.787234,56.2553191 C82.9988357,53.4666006 83.5563021,50.715004 84.4468085,48.0638298 C85.3293888,45.2111478 85.99092,42.2947198 86.4255319,39.3404255 C87.4042553,32.0851064 85.212766,21.6382979 84.0425532,20.2978723 L84.6170213,19.787234 C86.0425532,21.4255319 88.1702128,32.2340426 87.1914894,39.4468085 C86.707019,42.4397291 85.9957502,45.3914945 85.0638298,48.2765957 C84.207732,50.8692386 83.6648678,53.5549877 83.4468085,56.2765957 C83.2765957,61.1276596 82.787234,63.9787234 80.6595745,66.1276596 C78.5091798,67.3590981 76.1742258,68.2356039 73.7446809,68.7234043 C69,70.106383 63.106383,71.8297872 61.1276596,74.1489362 C57.5957447,78.2553191 56.0851064,81.9574468 56.6170213,85.1489362 L55.9574468,85.2765957 Z" id="Path"></path>
                        <path d="M25.3404255,83.7659574 L25.1914894,83.7659574 C24.5639578,83.7681334 24.0023852,83.3767343 23.787234,82.787234 C22.0630331,79.850515 20.1808366,77.0094638 18.1489362,74.2765957 L19.4042553,73.4042553 C20.2978723,74.6595745 24.7021277,81 25.2340426,82.3404255 C25.4446951,82.3828359 25.6616879,82.3828359 25.8723404,82.3404255 C27.1757016,81.8054717 28.2258427,80.7933792 28.8085106,79.5106383 C29.3772803,78.2560874 29.7091026,76.9071575 29.787234,75.5319149 C30.1310077,73.0619033 30.84843,70.6585386 31.9148936,68.4042553 C32.8946102,65.8756463 34.3377709,63.5521575 36.1702128,61.5531915 C36.8510638,60.787234 37.6382979,59.9148936 38.5744681,58.6808511 C40.661791,56.0855882 43.2620855,53.948856 46.212766,52.4042553 C47.0425532,51.9148936 47.893617,51.3829787 48.7446809,50.8297872 L51.2978723,49.2340426 C53.1489362,48.1276596 53.9574468,47.5957447 54.1702128,46.7021277 C54.390897,45.9936116 54.7609135,45.3406413 55.2553191,44.787234 C56.2576798,43.8813854 56.5963392,42.4505491 56.106383,41.1914894 C55.7483052,40.1952149 55.3144109,39.227844 54.8085106,38.2978723 C53.1476443,36.0092858 52.466267,33.1536261 52.9148936,30.3617021 C53.106383,29.4468085 53.2765957,28.6595745 53.4042553,27.9574468 C53.5292147,25.8077842 54.4643783,23.7853978 56.0212766,22.2978723 L56.9361702,21.4893617 C57.7021277,20.8297872 57.7021277,20.8297872 58.2765957,19.3617021 C58.3624664,18.9938844 58.5060921,18.6420013 58.7021277,18.3191489 C60.1071732,14.6900512 62.847804,11.7362602 66.3617021,10.0638298 L68.0638298,9.19148936 C70.8723404,7.70212766 73.7659574,6.14893617 77.5106383,9.19148936 C79.6382979,10.9148936 80.0425532,10.9574468 80.9148936,11.0638298 C82.4623692,11.2505207 83.9704552,11.6814024 85.3829787,12.3404255 C87.7446809,13.3191489 88.3191489,12.7659574 89,12.1276596 C90.3012015,10.9630033 92.2534521,10.909024 93.6170213,12 C94.8700211,12.8302601 96.3844796,13.1710133 97.8723404,12.9574468 C99.958158,12.6783155 102.069617,13.2367812 103.744681,14.5106383 C105.312105,15.6598868 107.267645,16.1487718 109.191489,15.8723404 C110.766318,15.5891607 112.389684,15.9245039 113.723404,16.8085106 C114.707433,17.4708686 115.994694,17.4708686 116.978723,16.8085106 C118.876873,15.5945723 121.399507,16.146696 122.617021,18.0425532 L122.617021,18.212766 C123.921108,19.8108682 125.679417,20.9756547 127.659574,21.5531915 C129.411258,22.0063672 130.929525,23.0995194 131.914894,24.6170213 C132.170213,25.0212766 132.361702,25.1914894 132.489362,25.1914894 C133.116153,24.7923543 133.68224,24.30509 134.170213,23.7446809 C135.276596,22.4893617 136.659574,20.9574468 138.425532,21.8510638 C139.06383,22.212766 139.446809,21.8510638 140.361702,20.7446809 C141.276596,19.6382979 142.085106,18.6170213 143.510638,19.6170213 C143.762387,19.8704919 144.111626,20.0024266 144.468085,19.9787234 C145.510638,19.9787234 146.340426,20.2978723 148.276596,23.2553191 C149.021277,24.3829787 149.531915,25.0638298 149.893617,25.5744681 C150.957447,27 150.957447,27.1702128 151.042553,29.4680851 L151.042553,30.7446809 C151.153532,32.0772688 151.060257,33.4189907 150.765957,34.7234043 L151.042553,35 C152.039399,36.2950802 152.763211,37.7788932 153.170213,39.3617021 L151.680851,39.7659574 C151.360929,38.4390548 150.782523,37.1882508 149.978723,36.0851064 C149.319149,35.4255319 149.085106,35.1489362 149.319149,34.3191489 C149.578122,33.1608551 149.657062,31.9695717 149.553191,30.787234 L149.553191,29.4893617 C149.553191,27.5106383 149.553191,27.5106383 148.723404,26.4680851 C148.319149,25.9574468 147.808511,25.2340426 147.042553,24.0851064 C145.382979,21.5319149 144.914894,21.5106383 144.425532,21.4893617 C143.761818,21.4798589 143.12222,21.2390691 142.617021,20.8085106 L142.553191,20.8085106 C142.382979,20.8085106 141.914894,21.4255319 141.680851,21.7234043 C140.93617,22.6808511 139.680851,24.2553191 137.787234,23.2553191 C137.234043,22.9361702 136.489362,23.7021277 135.510638,24.8085106 C134.531915,25.9148936 133.680851,26.9361702 132.531915,26.7659574 C131.778146,26.6328543 131.131431,26.1517615 130.787234,25.4680851 C130.003563,24.2547983 128.785665,23.387046 127.382979,23.0425532 C125.13963,22.3359301 123.155598,20.9811619 121.680851,19.1489362 C120.042553,17.1489362 119.12766,17.5531915 117.765957,18.1702128 C116.324622,19.0858826 114.483889,19.0858826 113.042553,18.1702128 C111.99287,17.4676544 110.705527,17.2147834 109.468085,17.4680851 C107.21382,17.7873891 104.923903,17.2149099 103.085106,15.8723404 C101.692438,14.7853388 99.9219121,14.302468 98.1702128,14.5319149 C96.3532456,14.804393 94.4993404,14.4033441 92.9574468,13.4042553 C91.0851064,12.3404255 90.7021277,12.7021277 90.0425532,13.4042553 C89,14.3829787 87.9148936,15.1489362 84.787234,13.9148936 C83.5413913,13.3335713 82.2140026,12.9461173 80.8510638,12.7659574 C79.6382979,12.6170213 79.0212766,12.4680851 76.5957447,10.6382979 C73.6382979,8.23404255 71.6170213,9.31914894 68.8297872,10.8085106 L67.0638298,11.7021277 C63.8895538,13.2062973 61.4141753,15.8720894 60.1489362,19.1489362 C60,19.5531915 59.8510638,19.893617 59.7446809,20.1702128 C59.4739716,21.2427143 58.8523495,22.1938711 57.9787234,22.8723404 L57.0851064,23.6595745 C55.7871705,24.9314198 55.025778,26.6521669 54.9574468,28.4680851 C54.8085106,29.1702128 54.6595745,29.9787234 54.4468085,30.9148936 C54.1012539,33.3393484 54.7284108,35.8020863 56.1914894,37.7659574 C56.7727572,38.7511813 57.270934,39.783119 57.6808511,40.8510638 C58.3538449,42.6086855 57.9191796,44.5981151 56.5744681,45.9148936 C56.217131,46.2822995 55.9479439,46.7260944 55.787234,47.212766 C55.4468085,48.7659574 54.1489362,49.5531915 52.212766,50.7234043 C51.4893617,51.1489362 50.6595745,51.6382979 49.7234043,52.2765957 C48.787234,52.9148936 47.9787234,53.3829787 47.1276596,53.893617 C44.3571421,55.2788409 41.8962263,57.2113836 39.893617,59.5744681 C38.893617,60.8723404 38.106383,61.7021277 37.4042553,62.5531915 C35.6346289,64.3987268 34.2336579,66.5651767 33.2765957,68.9361702 C32.2923992,71.0640342 31.646327,73.3324654 31.3617021,75.6595745 C31.2082665,77.1327099 30.8128885,78.5704481 30.1914894,79.9148936 C29.3242951,81.9167363 27.4947666,83.3370281 25.3404255,83.6808511" id="Path"></path>
                        <path d="M38.5106383,13.1914894 L37.7446809,13.0851064 C37.893617,11.893617 39.8723404,10.212766 43.0638298,7.76595745 C43.9787234,7.04255319 44.8297872,6.36170213 45.5531915,5.74468085 C48.106383,3.61702128 54.3617021,1.59574468 62.5744681,2.21276596 C67.0272522,2.40044209 71.2126295,4.38945625 74.1702128,7.72340426 L73.5531915,8.19148936 C70.7198719,5.055982 66.7531311,3.17982078 62.5319149,2.9787234 C54.5957447,2.38297872 48.5744681,4.23404255 46.1276596,6.34042553 C45.4042553,6.95744681 44.5319149,7.63829787 43.6170213,8.36170213 C41.4893617,10.0851064 38.7234043,12.212766 38.5957447,13.1914894" id="Path"></path>
                        <path d="M86.4468085,177.680851 C86.4468085,177.680851 81.2553191,175.06383 74.9148936,171.021277 C68.9787234,167.212766 57.893617,159.659574 48.0638298,152.595745 C40.6940613,147.746255 32.8527473,143.654515 24.6595745,140.382979 L24.9361702,139.659574 C33.1905969,142.958405 41.0891693,147.085908 48.5106383,151.978723 C58.2765957,159.042553 69.4042553,166.574468 75.3191489,170.361702 C81.7021277,174.404255 86.7446809,176.978723 86.787234,177 L86.4468085,177.680851 Z" id="Path"></path>
                    </g>
                </g>
            </g>
            <path d="M1.76595745,237.489362 C2.90852178,235.401456 4.21773665,233.409173 5.68085106,231.531915 C8.17547619,228.84628 10.8329792,226.316679 13.6382979,223.957447 L13.9148936,223.723404 L19.5957447,191.957447 C22,191.957447 28.9148936,191.617021 29.8510638,191.617021 C31.5940264,191.768823 33.3271987,192.017433 35.0425532,192.361702 L35.893617,192.510638 L36.1702128,191.702128 C36.3404255,191.255319 40.0638298,180.765957 40.3191489,175.553191 C40.4680851,172.851064 41.3404255,166.021277 42.106383,160 C42.8723404,153.978723 43.4042553,150 43.4042553,148.93617 C43.4042553,146.680851 43.6382979,142.893617 43.6382979,142.87234 L43.6382979,142.553191 L43.5106383,142.297872 C41.3373831,138.081854 40.0691422,133.458209 39.787234,128.723404 L39.787234,124.468085 C40.0058687,121.603236 39.7177724,118.722273 38.9361702,115.957447 C37.2978723,109.404255 36.5957447,101.425532 38.9361702,99.3191489 C40.7682929,97.619413 42.8312015,96.1868376 45.0638298,95.0638298 L45.6382979,94.787234 L45.6382979,94.1702128 C45.6616067,91.3722372 45.9753453,88.5842419 46.5744681,85.8510638 C47.3118364,82.0987241 47.7317612,78.2909317 47.8297872,74.4680851 C48.0425532,71.0851064 48.2765957,67.6170213 48.4893617,66.7021277 C48.787234,65.3617021 49.1489362,60.6808511 49.5106383,56.0638298 C49.787234,52.7446809 50.0425532,49.2978723 50.212766,48.4042553 C50.4447508,47.3715881 50.765079,46.3607748 51.1702128,45.3829787 C51.7843149,43.8755298 52.2337319,42.3061371 52.5106383,40.7021277 C53.3021845,37.5755172 54.5267939,34.5748662 56.1489362,31.787234 C56.6595745,31.1489362 59.4042553,28.5744681 61.1489362,26.9787234 C61.6170213,26.6382979 64.9787234,24.3191489 66.3404255,23.6382979 C67.3116408,22.9996051 68.16771,22.2010867 68.8723404,21.2765957 C69.8705883,20.000607 71.0881969,18.9126846 72.4680851,18.0638298 C73.8085106,17.3829787 75.3404255,16.4255319 76.7234043,15.5744681 C77.6222334,14.954988 78.5684163,14.4071979 79.5531915,13.9361702 C81.2108172,13.1769994 82.7864006,12.2501857 84.2553191,11.1702128 C87.1405871,9.21900458 90.1788485,7.50420127 93.3404255,6.04255319 C94.3369195,5.87675989 95.1114642,5.08500308 95.2553191,4.08510638 C95.2553191,3.59574468 95.4893617,3 99.0425532,3 L109.382979,3 C110.613545,2.97920008 111.842177,2.89397702 113.06383,2.74468085 C114.581496,2.55295494 116.108712,2.44640502 117.638298,2.42553191 C119.87234,2.42553191 122.340426,2.25531915 124.021277,2.12765957 L125.531915,2.12765957 C126.148936,2.12765957 129.787234,2.65957447 132.808511,3.25531915 C133.923287,3.46724346 135.071067,3.43092131 136.170213,3.14893617 C137.276243,2.77369846 138.496464,2.9730809 139.425532,3.68085106 C141.044875,4.85420387 142.962149,5.5473721 144.957447,5.68085106 L145.87234,5.68085106 C147.557446,5.80950622 149.210319,6.2119448 150.765957,6.87234043 C151.44696,7.49470585 152.357516,7.80336892 153.276596,7.72340426 L154.957447,7.72340426 C157.265613,8.04200647 159.528989,8.62748562 161.702128,9.46808511 C163.566138,10.1221044 165.38559,10.8967926 167.148936,11.787234 C167.699992,12.1070552 168.285219,12.3639841 168.893617,12.5531915 C170.450623,13.0898829 171.893775,13.9124797 173.148936,14.9787234 C173.795048,15.5537663 174.509671,16.0468563 175.276596,16.4468085 C176.215179,16.8908991 177.043582,17.5376348 177.702128,18.3404255 C179.354134,20.3220508 180.881879,22.4040471 182.276596,24.5744681 C182.276596,25.2765957 183.042553,25.6382979 184.404255,26.2765957 C185.765957,26.9148936 187.808511,28.0425532 188.191489,29.1276596 C188.829787,31.0638298 191.06383,32.2340426 192.702128,33.0851064 C193.21862,33.3191772 193.710426,33.604282 194.170213,33.9361702 C195.133016,35.5596183 195.890581,37.2962999 196.425532,39.106383 L196.425532,39.3404255 L196.574468,39.5106383 C197.192226,40.0457762 197.642805,40.747497 197.87234,41.5319149 C197.360726,42.3765728 196.784539,43.1803891 196.148936,43.9361702 C194.489362,46.0638298 194.021277,46.7446809 194.234043,47.5106383 C194.255304,47.744198 194.255304,47.9792063 194.234043,48.212766 C194.148545,49.0614323 194.213368,49.9185267 194.425532,50.7446809 C194.687847,52.4907729 194.80173,54.2559531 194.765957,56.0212766 C194.790651,57.094354 194.740886,58.167852 194.617021,59.2340426 C194.468085,59.8085106 193.404255,63.1489362 192.957447,64.5744681 L190.255319,68.3191489 L190.425532,68.8085106 C192.36695,75.4078235 193.250246,82.2731162 193.042553,89.1489362 C192.954818,93.1002682 192.577925,97.0398756 191.914894,100.93617 C191.553311,102.325479 191.488068,103.775319 191.723404,105.191489 C191.943011,106.041821 192.227534,106.87405 192.574468,107.680851 C193.295143,108.974864 193.543363,110.479229 193.276596,111.93617 C192.660231,113.451483 191.852233,114.881569 190.87234,116.191489 C189.361702,118.319149 188.510638,119.723404 188.744681,120.851064 C188.449045,122.21285 187.803741,123.474127 186.87234,124.510638 L186.723404,124.659574 L186.723404,124.87234 C185.679816,128.371407 185.086384,131.9892 184.957447,135.638298 C184.957447,135.978723 185.106383,136.489362 185.191489,137.148936 C185.829787,141.234043 187.531915,152.042553 186.87234,156.808511 C186.042553,162.93617 181.170213,181.297872 176,187.553191 C173.357549,190.745783 170.335188,193.603807 167,196.06383 C165.585202,197.106962 164.248326,198.25184 163,199.489362 C161.659942,201.16711 160.642735,203.078883 160,205.12766 C159.02546,207.989375 157.426564,210.598483 155.319149,212.765957 C151.234043,216.680851 145.12766,214.765957 141.468085,213.617021 C139.340426,212.957447 138.234043,212.595745 137.425532,213.191489 C136.617021,213.787234 136.361702,215.659574 136.276596,218.340426 C136.426724,220.872927 136.020021,223.40756 135.085106,225.765957 C134.531915,226.723404 133.893617,227.702128 133.276596,228.659574 C131.391778,231.059663 130.107886,233.875472 129.531915,236.87234 L131.553191,236.87234 C132.147756,234.291173 133.302693,231.872344 134.93617,229.787234 C135.553191,228.808511 136.212766,227.808511 136.787234,226.808511 C137.919537,224.165686 138.42212,221.295864 138.255319,218.425532 C138.252219,217.270931 138.344734,216.118055 138.531915,214.978723 C139.297068,215.131929 140.050654,215.338099 140.787234,215.595745 C144.87234,216.87234 151.723404,219.021277 156.680851,214.255319 C158.972386,211.831438 160.688606,208.92259 161.702128,205.744681 C162.260792,203.942453 163.140133,202.255847 164.297872,200.765957 C165.477369,199.574925 166.743224,198.472636 168.085106,197.468085 C171.53495,194.950406 174.664488,192.020929 177.404255,188.744681 C183.234043,181.702128 188.042553,162.212766 188.744681,157 C189.446809,151.787234 187.765957,141.297872 187.042553,136.723404 C187.019915,136.219817 186.94142,135.720301 186.808511,135.234043 C186.976083,131.940779 187.555047,128.681422 188.531915,125.531915 C189.74539,124.128029 190.489345,122.379735 190.659574,120.531915 C191.13108,119.354897 191.768763,118.251492 192.553191,117.255319 C193.660063,115.800055 194.555462,114.1955 195.212766,112.489362 C195.624777,110.58516 195.353623,108.596702 194.446809,106.87234 C194.145189,106.182951 193.896249,105.471694 193.702128,104.744681 C193.548909,103.606964 193.621207,102.450211 193.914894,101.340426 C194.592418,97.3812704 194.976443,93.3774601 195.06383,89.3617021 C195.273892,82.418719 194.405405,75.4851803 192.489362,68.8085106 L194.787234,65.6382979 L194.787234,65.4893617 C194.93617,64.9787234 196.340426,60.6382979 196.531915,59.8510638 C196.698125,58.6243472 196.769259,57.3866176 196.744681,56.1489362 C196.780275,54.1976012 196.645007,52.2468952 196.340426,50.3191489 C196.192367,49.7067346 196.149202,49.0736516 196.212766,48.4468085 C196.255221,48.0863522 196.255221,47.7221585 196.212766,47.3617021 C196.672494,46.6274704 197.169602,45.9173165 197.702128,45.2340426 C198.55699,44.3378212 199.27403,43.3196248 199.829787,42.212766 C200.319149,40.7234043 198.893617,39 198.212766,38.2765957 C197.629416,36.2420422 196.732093,34.3110019 195.553191,32.5531915 C194.976951,32.0310614 194.323952,31.6005123 193.617021,31.2765957 C192.297872,30.5744681 190.489362,29.6382979 190.106383,28.4893617 C189.468085,26.6170213 187.06383,25.3617021 185.319149,24.4680851 C184.957447,24.2765957 184.510638,24.0425532 184.297872,23.893617 C182.89401,21.4439241 181.247433,19.1415679 179.382979,17.0212766 C178.551655,16.046167 177.531049,15.2499499 176.382979,14.6808511 C175.778096,14.3675866 175.21365,13.9817629 174.702128,13.5319149 C173.168911,12.2149014 171.379566,11.2296746 169.446809,10.6382979 C168.978509,10.4413659 168.523632,10.2139272 168.085106,9.95744681 C166.247,9.04033102 164.35731,8.23046383 162.425532,7.53191489 C160.062331,6.69985643 157.615121,6.12907877 155.12766,5.82978723 L154.553191,5.82978723 C154.100289,5.78722363 153.644392,5.78722363 153.191489,5.82978723 C152.468085,5.82978723 152.255319,5.82978723 152.06383,5.61702128 C151.382979,4.93617021 149.744681,4.44680851 146.06383,3.85106383 L145.021277,3.85106383 C143.332571,3.65572092 141.736467,2.97589875 140.425532,1.89361702 C139.045727,0.887440405 137.276244,0.580729902 135.638298,1.06382979 C134.833367,1.27990584 133.990751,1.31622548 133.170213,1.17021277 C130.647184,0.642104305 128.097327,0.251457722 125.531915,-5.68434189e-14 L123.851064,0.106382979 C122.255319,0.212765957 119.829787,0.382978723 117.680851,0.382978723 C116.038146,0.404543429 114.397656,0.511068741 112.765957,0.70212766 C111.615554,0.851440396 110.457739,0.936678314 109.297872,0.957446809 L99.0425532,0.957446809 C94.787234,0.957446809 93.6595745,1.89361702 93.2553191,3.61702128 L93.2553191,3.93617021 C93.1571711,3.9574743 93.0555948,3.9574743 92.9574468,3.93617021 C89.5487016,5.40431155 86.2979624,7.21503034 83.2553191,9.34042553 C81.5319149,10.4042553 79.5744681,11.6382979 79.1276596,11.8085106 C77.9003103,12.2941401 76.7415889,12.9378742 75.6808511,13.7234043 C74.3778936,14.5910093 73.0283508,15.3865293 71.6382979,16.106383 C70.0000139,17.0623284 68.556416,18.3182586 67.3829787,19.8085106 C66.8312217,20.5091933 66.1870636,21.1318795 65.4680851,21.6595745 C63.893617,22.4468085 60.1276596,25.0851064 59.9787234,25.1914894 L59.8723404,25.1914894 C59.4042553,25.5957447 55.3829787,29.2978723 54.5957447,30.2765957 C52.6883631,33.4158723 51.3016396,36.843163 50.4893617,40.4255319 C50.2150153,41.880165 49.8017755,43.3051298 49.2553191,44.6808511 C48.8025387,45.7660237 48.4534649,46.8916085 48.212766,48.0425532 C48.0212766,49.0212766 47.7659574,52.2978723 47.4680851,55.9148936 C47.1276596,60.1702128 46.7446809,65 46.4893617,66.212766 C46.2340426,67.4255319 46.0425532,70.4680851 45.787234,74.2553191 C45.6209171,77.8901302 45.2515466,81.5128026 44.6808511,85.106383 C43.9905426,87.8916224 43.6263958,90.7476755 43.5957447,93.6170213 C41.3993277,94.7785584 39.3553729,96.2078975 37.5106383,97.8723404 C33.4680851,101.574468 36.3404255,114.042553 36.9574468,116.510638 C37.686397,119.096068 37.9529031,121.78994 37.7446809,124.468085 L37.7446809,128.723404 C37.9844825,133.701569 39.2905212,138.57019 41.5744681,143 C41.5744681,143.93617 41.3404255,146.93617 41.3404255,148.914894 C41.3404255,149.914894 40.7234043,154.659574 40.0638298,159.723404 C39.2978723,165.765957 38.4042553,172.638298 38.2553191,175.425532 C37.533328,180.459279 36.278042,185.401968 34.5106383,190.170213 C32.963099,189.87263 31.4005014,189.659549 29.8297872,189.531915 C28.6808511,189.531915 19.1914894,189.914894 18.6808511,189.93617 L17.8723404,189.93617 L12.0425532,222.617021 C9.30258957,224.974135 6.70243018,227.489043 4.25531915,230.148936 C2.64111182,232.139372 1.21647633,234.276325 5.68434189e-14,236.531915 L1.76595745,237.553191" id="Path" fill="#6B818C" fill-rule="nonzero"></path>
        </g>
    </g>
</svg>