<?xml version="1.0" encoding="UTF-8"?>
<svg width="592px" height="592px" viewBox="0 0 592 592" version="1.1" xmlns="http://www.w3.org/2000/svg" xmlns:xlink="http://www.w3.org/1999/xlink">
    <title>Group 21 Copy</title>
    <defs>
        <radialGradient cx="50%" cy="86.2797494%" fx="50%" fy="86.2797494%" r="90.679686%" gradientTransform="translate(0.500000,0.862797),scale(0.900929,1.000000),rotate(-90.000000),translate(-0.500000,-0.862797)" id="radialGradient-1">
            <stop stop-color="#E41B5B" offset="0%"></stop>
            <stop stop-color="#EB5686" offset="100%"></stop>
        </radialGradient>
    </defs>
    <g id="Welcome" stroke="none" stroke-width="1" fill="none" fill-rule="evenodd">
        <g id="Artboard" transform="translate(-3807.000000, -7341.000000)">
            <g id="Group-21-Copy" transform="translate(3807.000000, 7341.000000)">
                <rect id="Rectangle" x="0" y="0" width="592" height="592"></rect>
                <g id="Group-3-Copy-3" transform="translate(135.000000, 151.000000)" fill="url(#radialGradient-1)">
                    <path d="M161.689777,43.7044856 C152.833489,35.6105729 133.83645,0 97.1656874,0 C60.4949253,0 37.9553952,19.0963989 28.8460635,28.4550196 C19.2306612,37.8136403 12.019217,48.4367262 7.21151586,60.3246415 C2.40381473,72.2125568 0,84.2899901 0,96.5574271 C0,108.824743 2.40381473,120.775669 7.21151586,132.410691 C12.019217,144.298606 19.2306612,154.921692 28.8460635,164.280313 C110.154877,246.441543 151.652723,287.985871 153.3396,288.913299 C155.869916,290.30444 158.653349,291 161.689777,291 C164.220093,291 166.623972,290.430905 168.901293,289.292699 C170.419506,288.533894 212.296906,246.863099 294.53349,164.280313 C304.148885,154.921692 311.360279,144.298606 316.168038,132.410691 C320.722679,120.775669 323,108.824743 323,96.5574271 C323,84.2899901 320.722679,72.2125568 316.168038,60.3246415 C311.360279,48.4367262 304.148885,37.687133 294.53349,28.0756193 C285.424207,18.970013 268.317732,0 226.213866,0 C184.11,0 170.546065,35.6105729 161.689777,43.7044856 Z" id="Fill-1"></path>
                </g>
            </g>
        </g>
    </g>
</svg>