<?xml version="1.0" encoding="UTF-8"?>
<svg width="340px" height="340px" viewBox="0 0 340 340" version="1.1" xmlns="http://www.w3.org/2000/svg" xmlns:xlink="http://www.w3.org/1999/xlink">
    <title>Group 21 Copy 2</title>
    <defs>
        <radialGradient cx="50%" cy="86.2797494%" fx="50%" fy="86.2797494%" r="90.679686%" gradientTransform="translate(0.500000,0.862797),scale(0.898773,1.000000),rotate(-90.000000),translate(-0.500000,-0.862797)" id="radialGradient-1">
            <stop stop-color="#E41B5B" offset="0%"></stop>
            <stop stop-color="#EB5686" offset="100%"></stop>
        </radialGradient>
    </defs>
    <g id="Welcome" stroke="none" stroke-width="1" fill="none" fill-rule="evenodd">
        <g id="Artboard" transform="translate(-4480.000000, -7531.000000)">
            <g id="Group-2-Copy-5" transform="translate(3807.000000, 7341.000000)">
                <g id="Group-21-Copy-2" transform="translate(673.000000, 190.000000)">
                    <rect id="Rectangle" x="0" y="0" width="340" height="340"></rect>
                    <g id="Group-3-Copy-3" transform="translate(7.000000, 24.000000)" fill="url(#radialGradient-1)">
                        <path d="M163.191539,44.00486 C154.252995,35.8553191 135.079513,0 98.0681551,0 C61.0567977,0 38.3079221,19.2276456 29.1139835,28.6505867 C19.4092741,38.0735278 12.1308506,48.7696246 7.27849589,60.7392438 C2.42614119,72.708863 0,84.8693027 0,97.221052 C0,109.572679 2.42614119,121.605742 7.27849589,133.32073 C12.1308506,145.290349 19.4092741,155.986446 29.1139835,165.409387 C111.177988,248.135299 153.061262,289.965155 154.763807,290.898957 C157.317625,292.299659 160.12691,293 163.191539,293 C165.745357,293 168.171563,292.426994 170.470035,291.280965 C172.00235,290.516945 214.268703,248.559753 297.269095,165.409387 C306.973797,155.986446 314.252171,145.290349 319.104583,133.32073 C323.701528,121.605742 326,109.572679 326,97.221052 C326,84.8693027 323.701528,72.708863 319.104583,60.7392438 C314.252171,48.7696246 306.973797,37.9461511 297.269095,28.2685789 C288.075206,19.1003911 270.809847,0 228.314924,0 C185.82,0 172.130084,35.8553191 163.191539,44.00486 Z" id="Fill-1"></path>
                    </g>
                </g>
            </g>
        </g>
    </g>
</svg>