<?xml version="1.0" encoding="UTF-8"?>
<svg width="138px" height="138px" viewBox="0 0 138 138" version="1.1" xmlns="http://www.w3.org/2000/svg" xmlns:xlink="http://www.w3.org/1999/xlink">
    <title>Group</title>
    <defs>
        <radialGradient cx="50.0000445%" cy="86.2797%" fx="50.0000445%" fy="86.2797%" r="90.679686%" gradientTransform="translate(0.500000,0.862797),scale(0.900000,1.000000),rotate(-90.000000),translate(-0.500000,-0.862797)" id="radialGradient-1">
            <stop stop-color="#E41B5B" offset="0%"></stop>
            <stop stop-color="#E52361" offset="13.7267524%"></stop>
            <stop stop-color="#EB5686" offset="100%"></stop>
        </radialGradient>
    </defs>
    <g id="Page-1" stroke="none" stroke-width="1" fill="none" fill-rule="evenodd">
        <g id="Group">
            <g id="Group-3-Copy-3-Copy" transform="translate(19.000000, 24.000000)" fill="url(#radialGradient-1)" fill-rule="nonzero">
                <path d="M50.0587544,13.5168512 C47.3168696,11.0135792 41.4354333,0 30.0822562,0 C18.729079,0 11.7508964,5.90610274 8.9306698,8.80052151 C5.95376508,11.6949403 3.72111981,14.9804308 2.23266745,18.6571056 C0.744215088,22.3337804 0,26.0690691 0,29.8631218 C0,33.6571369 0.744215088,37.3532996 2.23266745,40.9517601 C3.72111981,44.6284349 5.95376508,47.9139254 8.9306698,50.8083442 C34.1036772,76.2190338 46.9513075,89.0677952 47.4735605,89.3546284 C48.2569401,89.7848783 49.1186839,90 50.0587544,90 C50.842134,90 51.586369,89.8239913 52.2914219,89.4719687 C52.7614571,89.2372869 65.7265962,76.349412 91.186839,50.8083442 C94.1637415,47.9139254 96.3963713,44.6284349 97.8848414,40.9517601 C99.2949471,37.3532996 100,33.6571369 100,29.8631218 C100,26.0690691 99.2949471,22.3337804 97.8848414,18.6571056 C96.3963713,14.9804308 94.1637415,11.6558143 91.186839,8.68318123 C88.3666275,5.86701434 83.0705053,0 70.0352526,0 C57,0 52.8006392,11.0135792 50.0587544,13.5168512 Z" id="Fill-1"></path>
            </g>
            <circle id="Oval" cx="69" cy="69" r="69"></circle>
        </g>
    </g>
</svg>