<?xml version="1.0" encoding="UTF-8"?>
<svg width="462px" role="img" height="144px" viewBox="0 0 462 144" version="1.1" xmlns="http://www.w3.org/2000/svg" xmlns:xlink="http://www.w3.org/1999/xlink">
    <title>Identity logo/brand - Peter Koenders</title>
    <defs>
        <radialGradient cx="50%" cy="86.2797494%" fx="50%" fy="86.2797494%" r="90.679686%" gradientTransform="translate(0.500000,0.862797),scale(0.900000,1.000000),rotate(-90.000000),translate(-0.500000,-0.862797)" id="radialGradient-1">
            <stop stop-color="#E41B5B" offset="0%"></stop>
            <stop stop-color="#EB5686" offset="100%"></stop>
        </radialGradient>
    </defs>
    <g id="Welcome" stroke="none" stroke-width="1" fill="none" fill-rule="evenodd">
        <g id="Artboard" transform="translate(-4871.000000, -1354.000000)">
            <g id="Group-21" transform="translate(4871.000000, 1354.000000)">
                <path d="M103.261202,144 C116.364299,144 124.816029,141.922631 128.616393,137.767892 C132.416758,133.613153 134.31694,128.889749 134.31694,123.597679 C134.31694,120.812379 133.943898,117.77176 133.197814,114.475822 L133.197814,114.475822 L131.868852,108.765957 L130.679781,102.568665 L129.840437,98.7388781 C129.467395,97.1141199 129.280874,95.4893617 129.280874,93.8646035 C129.280874,89.2224371 130.808015,85.3462282 133.862295,82.2359768 C136.916576,79.1257253 142.174135,77.5705996 149.634973,77.5705996 L149.634973,77.5705996 L156,77.5705996 L156,66.4990329 L149.634973,66.4990329 C142.080874,66.4990329 136.8,64.9323017 133.79235,61.7988395 C130.784699,58.6653772 129.280874,54.893617 129.280874,50.483559 C129.280874,48.8123791 129.467395,47.0715667 129.840437,45.2611219 L129.840437,45.2611219 L130.679781,41.5705996 L131.868852,35.3733075 L133.197814,29.6634429 C133.943898,26.4139265 134.31694,23.3733075 134.31694,20.5415861 C134.31694,15.2959381 132.416758,10.5609284 128.616393,6.33655706 C124.816029,2.11218569 116.364299,0 103.261202,0 L103.261202,0 L92,0 L92,11.1411992 L103.121311,11.1411992 C110.209107,11.1411992 114.883789,12.1508704 117.145355,14.1702128 C119.406922,16.1895551 120.537705,18.6615087 120.537705,21.5860735 C120.537705,23.72147 120.071403,26.9941973 119.138798,31.4042553 L119.138798,31.4042553 L117.320219,39.5512573 C116.434244,43.9613153 115.991257,47.5125725 115.991257,50.205029 C115.991257,53.2688588 116.492532,55.9729207 117.495082,58.3172147 C118.497632,60.6615087 120.03643,62.959381 122.111475,65.2108317 C124.186521,67.4622824 127.43898,69.7485493 131.868852,72.0696325 C127.43898,74.3907157 124.186521,76.6653772 122.111475,78.893617 C120.03643,81.1218569 118.497632,83.4197292 117.495082,85.787234 C116.492532,88.1547389 115.991257,90.8704062 115.991257,93.934236 C115.991257,96.6266925 116.434244,100.154739 117.320219,104.518375 L117.320219,104.518375 L119.138798,112.665377 C120.071403,117.121857 120.537705,120.394584 120.537705,122.483559 C120.537705,125.408124 119.406922,127.891683 117.145355,129.934236 C114.883789,131.976789 110.209107,132.998066 103.121311,132.998066 L103.121311,132.998066 L92,132.998066 L92,144 L103.261202,144 Z" id="Path" fill="#FFFFFF" fill-rule="nonzero" transform="translate(124.000000, 72.000000) scale(-1, 1) translate(-124.000000, -72.000000) "></path>
                <polygon id="Path" fill-opacity="0.66" fill="#FFFFFF" fill-rule="nonzero" transform="translate(39.000000, 72.000000) scale(-1, 1) translate(-39.000000, -72.000000) " points="0 111 78 72 0 33 0 45.3231598 53.4016173 72.070018 0 98.6068223"></polygon>
                <path d="M317.261202,144 C330.364299,144 338.816029,141.922631 342.616393,137.767892 C346.416758,133.613153 348.31694,128.889749 348.31694,123.597679 C348.31694,120.812379 347.943898,117.77176 347.197814,114.475822 L347.197814,114.475822 L345.868852,108.765957 L344.679781,102.568665 L343.840437,98.7388781 C343.467395,97.1141199 343.280874,95.4893617 343.280874,93.8646035 C343.280874,89.2224371 344.808015,85.3462282 347.862295,82.2359768 C350.916576,79.1257253 356.174135,77.5705996 363.634973,77.5705996 L363.634973,77.5705996 L370,77.5705996 L370,66.4990329 L363.634973,66.4990329 C356.080874,66.4990329 350.8,64.9323017 347.79235,61.7988395 C344.784699,58.6653772 343.280874,54.893617 343.280874,50.483559 C343.280874,48.8123791 343.467395,47.0715667 343.840437,45.2611219 L343.840437,45.2611219 L344.679781,41.5705996 L345.868852,35.3733075 L347.197814,29.6634429 C347.943898,26.4139265 348.31694,23.3733075 348.31694,20.5415861 C348.31694,15.2959381 346.416758,10.5609284 342.616393,6.33655706 C338.816029,2.11218569 330.364299,0 317.261202,0 L317.261202,0 L306,0 L306,11.1411992 L317.121311,11.1411992 C324.209107,11.1411992 328.883789,12.1508704 331.145355,14.1702128 C333.406922,16.1895551 334.537705,18.6615087 334.537705,21.5860735 C334.537705,23.72147 334.071403,26.9941973 333.138798,31.4042553 L333.138798,31.4042553 L331.320219,39.5512573 C330.434244,43.9613153 329.991257,47.5125725 329.991257,50.205029 C329.991257,53.2688588 330.492532,55.9729207 331.495082,58.3172147 C332.497632,60.6615087 334.03643,62.959381 336.111475,65.2108317 C338.186521,67.4622824 341.43898,69.7485493 345.868852,72.0696325 C341.43898,74.3907157 338.186521,76.6653772 336.111475,78.893617 C334.03643,81.1218569 332.497632,83.4197292 331.495082,85.787234 C330.492532,88.1547389 329.991257,90.8704062 329.991257,93.934236 C329.991257,96.6266925 330.434244,100.154739 331.320219,104.518375 L331.320219,104.518375 L333.138798,112.665377 C334.071403,117.121857 334.537705,120.394584 334.537705,122.483559 C334.537705,125.408124 333.406922,127.891683 331.145355,129.934236 C328.883789,131.976789 324.209107,132.998066 317.121311,132.998066 L317.121311,132.998066 L306,132.998066 L306,144 L317.261202,144 Z" id="Path" fill="#FFFFFF" fill-rule="nonzero"></path>
                <polygon id="Path" fill-opacity="0.66" fill="#FFFFFF" fill-rule="nonzero" points="384 111 462 72 384 33 384 45.3231598 437.401617 72.070018 384 98.6068223"></polygon>
                <g id="Group-3-Copy-3" transform="translate(181.000000, 27.000000)" fill="url(#radialGradient-1)">
                    <path d="M50.0587544,13.5168512 C47.3168696,11.0135792 41.4354333,0 30.0822562,0 C18.729079,0 11.7508964,5.90610274 8.9306698,8.80052151 C5.95376508,11.6949403 3.72111981,14.9804308 2.23266745,18.6571056 C0.744215088,22.3337804 0,26.0690691 0,29.8631218 C0,33.6571369 0.744215088,37.3532996 2.23266745,40.9517601 C3.72111981,44.6284349 5.95376508,47.9139254 8.9306698,50.8083442 C34.1036772,76.2190338 46.9513075,89.0677952 47.4735605,89.3546284 C48.2569401,89.7848783 49.1186839,90 50.0587544,90 C50.842134,90 51.586369,89.8239913 52.2914219,89.4719687 C52.7614571,89.2372869 65.7265962,76.349412 91.186839,50.8083442 C94.1637415,47.9139254 96.3963713,44.6284349 97.8848414,40.9517601 C99.2949471,37.3532996 100,33.6571369 100,29.8631218 C100,26.0690691 99.2949471,22.3337804 97.8848414,18.6571056 C96.3963713,14.9804308 94.1637415,11.6558143 91.186839,8.68318123 C88.3666275,5.86701434 83.0705053,0 70.0352526,0 C57,0 52.8006392,11.0135792 50.0587544,13.5168512 Z" id="Fill-1"></path>
                </g>
            </g>
        </g>
    </g>
</svg>