<svg width="682" height="682" viewBox="0 0 682 682" fill="none" xmlns="http://www.w3.org/2000/svg">
<path d="M315.683 316.358L101.067 100.95C145.414 56.7672 195.973 27.7025 256.458 11.6201L334.562 305.634C328.607 307.223 320.081 312.008 315.695 316.358H315.683Z" fill="#E0C3D3"/>
<path d="M285.15 285.717L101.072 100.953C145.419 56.7706 195.978 27.7059 256.463 11.6235L323.445 263.725C308.869 267.242 295.541 274.902 285.162 285.721L285.15 285.717Z" fill="#E0A0C3"/>
<path d="M254.92 255.361L101.076 100.944C145.423 56.7613 195.982 27.6966 256.467 11.6143L312.446 222.313C290.61 227.779 270.646 239.241 254.935 255.355L254.92 255.361Z" fill="#E080B5"/>
<path d="M224.652 224.985L101.068 100.94C145.415 56.7574 195.974 27.6927 256.459 11.6104L301.424 180.871C272.347 188.283 245.728 203.575 224.667 224.985H224.652Z" fill="#E061A7"/>
<path d="M194.404 194.629L101.065 100.944C145.412 56.7613 195.971 27.6966 256.456 11.6143L290.414 139.45C254.078 148.801 220.804 167.919 194.412 194.629H194.404Z" fill="#E04198"/>
<path d="M164.155 164.273L101.061 100.946C145.408 56.7633 195.967 27.6985 256.452 11.6162L279.407 98.0273C235.792 109.315 195.882 132.259 164.159 164.273H164.155Z" fill="#E0228B"/>
<path d="M133.925 133.914L101.076 100.946C145.423 56.7632 195.982 27.6966 256.467 11.6143L268.417 56.5986C217.542 69.8269 170.978 96.5974 133.942 133.914H133.925Z" fill="#E10071"/>
<path d="M351.736 306.277C346.189 304.779 340.215 304.62 334.956 305.724L257.443 11.8809C317.929 -4.19952 373.948 -3.87798 434.178 12.3992L354.583 307.169C354.602 307.132 352.447 306.47 351.748 306.281L351.736 306.277Z" fill="#FFD9D9"/>
<path d="M362.701 264.401C349.607 260.863 336.166 260.797 323.839 263.741L257.443 11.8863C317.929 -4.19414 373.948 -3.87261 434.178 12.4045L365.878 265.338C364.082 264.827 363.628 264.657 362.72 264.411L362.701 264.401Z" fill="#FFB6B6"/>
<path d="M373.856 223.037C353.241 217.465 332.207 217.52 312.853 222.332L257.441 11.879C317.927 -4.20147 373.946 -3.87994 434.176 12.3972L377.047 223.966C375.232 223.455 374.797 223.285 373.871 223.039L373.856 223.037Z" fill="#FF8F8F"/>
<path d="M385.029 181.66C356.889 174.055 328.257 174.2 301.878 180.879L257.431 11.877C317.918 -4.20342 373.937 -3.88189 434.166 12.3953L388.218 182.558C386.403 182.051 385.949 181.908 385.023 181.66H385.029Z" fill="#FF6E6E"/>
<path d="M396.202 140.288C360.54 130.65 324.315 130.899 290.907 139.444L257.425 11.877C317.912 -4.20342 373.931 -3.88189 434.16 12.3953L399.383 141.186C397.568 140.681 397.115 140.536 396.188 140.288H396.202Z" fill="#FF4848"/>
<path d="M407.828 99.039C364.499 87.3295 320.299 87.6605 279.753 98.1766L257.425 11.877C317.912 -4.20342 373.931 -3.88189 434.16 12.3953L410.558 99.8031C408.725 99.3057 408.422 99.2036 407.817 99.039H407.828Z" fill="#FF2424"/>
<path d="M419.002 57.6652C368.135 43.9169 316.322 44.3576 268.741 56.7517L257.439 11.877C317.925 -4.20342 373.944 -3.88189 434.174 12.3953L421.743 58.4313C419.91 57.9357 419.607 57.8298 419.002 57.6652Z" fill="#FF0000"/>
<path d="M354.573 307.166L434.165 12.3955C494.395 28.6727 541.594 56.247 585.76 100.609L369.159 316.906C365.226 312.5 359.97 309.019 354.582 307.166H354.573Z" fill="#FFEBD9"/>
<path d="M365.878 265.329L434.165 12.3955C494.395 28.6727 541.594 56.247 585.76 100.609L399.649 286.508C390.632 276.881 378.532 269.278 365.884 265.325L365.878 265.329Z" fill="#FFD7B3"/>
<path d="M377.052 223.964L434.165 12.3955C494.395 28.6727 541.594 56.247 585.76 100.609L430.004 256.237C415.844 241.446 396.976 229.89 377.05 223.97L377.052 223.964Z" fill="#FFC48F"/>
<path d="M388.225 182.56L434.165 12.3955C494.395 28.6727 541.594 56.247 585.76 100.609L460.348 225.973C441.064 206.019 415.466 190.453 388.223 182.564L388.225 182.56Z" fill="#FFB26C"/>
<path d="M399.398 141.189L434.165 12.3955C494.395 28.6727 541.594 56.247 585.76 100.609L490.689 195.713C466.282 170.609 433.935 151.054 399.394 141.194L399.398 141.189Z" fill="#FF9F48"/>
<path d="M410.571 99.8034L434.165 12.3955C494.395 28.6727 541.594 56.247 585.76 100.609L521.386 165.302C491.695 134.987 454.281 111.969 410.571 99.8034Z" fill="#FF8C24"/>
<path d="M421.745 58.4335L434.175 12.3975C494.405 28.6746 541.604 56.2489 585.77 100.611L551.758 135.064C516.906 99.5784 472.743 72.5715 421.735 58.4335H421.745Z" fill="#FF8000"/>
<path d="M367.787 316.547L584.861 100.363C629.025 144.729 654.592 192.121 670.666 252.631L375.777 331.035C374.17 325.077 372.147 320.916 367.78 316.547H367.787Z" fill="#FFFED9"/>
<path d="M398.565 285.887L584.851 100.363C629.015 144.729 654.583 192.121 670.656 252.631L417.605 319.913C414.202 307.165 407.661 295.439 398.567 285.887H398.565Z" fill="#FFFDB3"/>
<path d="M428.928 255.663L584.851 100.363C629.015 144.729 654.583 192.121 670.656 252.631L459.008 308.905C453.677 288.895 443.298 270.53 428.929 255.663H428.928Z" fill="#FFFC8F"/>
<path d="M459.29 225.401L584.851 100.363C629.015 144.729 654.583 192.121 670.656 252.631L500.436 297.89C493.167 270.617 478.952 245.613 459.29 225.394V225.401Z" fill="#FFFB6C"/>
<path d="M489.652 195.177L584.851 100.363C629.015 144.729 654.583 192.121 670.656 252.631L541.841 286.88C532.636 252.344 514.611 220.701 489.652 195.168V195.177Z" fill="#FFFA48"/>
<path d="M520.022 164.93L584.851 100.363C629.015 144.729 654.583 192.121 670.656 252.631L583.246 275.873C572.105 234.092 550.266 195.792 520.022 164.921V164.93Z" fill="#FFF924"/>
<path d="M550.383 134.693L584.851 100.363C629.015 144.729 654.583 192.121 670.656 252.631L624.651 264.865C611.574 215.822 585.918 170.875 550.383 134.684V134.693Z" fill="#FFFF00"/>
<path d="M375.558 350.043C377.055 344.494 376.781 336.69 375.673 331.428L670.392 253.598C686.467 314.111 685.581 372.25 669.311 432.505L374.667 352.878C374.705 352.897 375.367 350.741 375.556 350.041L375.558 350.043Z" fill="#EBFFD9"/>
<path d="M417.415 361.013C421.126 347.266 420.99 333.162 417.594 320.316L670.4 253.607C686.475 314.12 685.589 372.259 669.318 432.514L416.494 364.185C417.005 362.369 417.175 361.934 417.421 361.026L417.415 361.013Z" fill="#D8FFB6"/>
<path d="M458.761 372.191C464.507 350.915 464.253 329.215 458.99 309.339L670.392 253.6C686.467 314.113 685.581 372.252 669.311 432.507L457.833 375.353C458.343 373.538 458.513 373.103 458.759 372.195L458.761 372.191Z" fill="#C5FF92"/>
<path d="M500.119 383.369C507.897 354.567 507.572 325.257 500.439 298.354L670.394 253.604C686.469 314.117 685.583 372.255 669.313 432.511L499.223 386.543C499.73 384.708 499.871 384.273 500.119 383.365V383.369Z" fill="#B1FF6C"/>
<path d="M541.471 394.547C551.281 358.218 550.852 321.306 541.851 287.371L670.394 253.61C686.469 314.122 685.583 372.261 669.313 432.517L540.577 397.725C541.082 395.909 541.225 395.455 541.471 394.547Z" fill="#9DFF48"/>
<path d="M582.701 406.179C594.583 362.176 594.065 317.292 583.088 276.216L670.394 253.595C686.469 314.107 685.583 372.246 669.313 432.502L581.942 408.89C582.44 407.055 582.538 406.771 582.701 406.166V406.179Z" fill="#8AFF24"/>
<path d="M624.056 417.357C637.975 365.815 637.345 313.31 624.489 265.192L670.392 253.607C686.467 314.12 685.581 372.259 669.311 432.514L623.295 420.078C623.794 418.244 623.894 417.96 624.056 417.355V417.357Z" fill="#71FF00"/>
<path d="M374.669 352.88L669.312 432.507C653.042 492.76 625.48 539.982 581.135 584.166L364.931 367.472C369.336 363.519 372.814 358.261 374.667 352.871L374.669 352.88Z" fill="#DCFFDC"/>
<path d="M416.488 364.19L669.312 432.507C653.042 492.76 625.48 539.982 581.135 584.167L395.32 397.976C404.961 388.935 412.543 376.831 416.494 364.177L416.488 364.19Z" fill="#B6FFB6"/>
<path d="M457.835 375.369L669.312 432.507C653.042 492.76 625.48 539.982 581.135 584.167L425.578 428.342C440.362 414.176 451.913 395.3 457.831 375.365L457.835 375.369Z" fill="#92FF92"/>
<path d="M499.221 386.546L669.312 432.507C653.042 492.76 625.48 539.982 581.135 584.166L455.829 458.7C475.774 439.408 491.333 413.799 499.219 386.544L499.221 386.546Z" fill="#6EFF6E"/>
<path d="M540.575 397.724L669.312 432.507C653.042 492.76 625.48 539.982 581.135 584.166L486.076 489.055C511.171 464.619 530.719 432.276 540.571 397.721L540.575 397.724Z" fill="#4AFF4A"/>
<path d="M581.942 408.903L669.312 432.507C653.042 492.76 625.48 539.982 581.135 584.167L516.474 519.767C546.776 490.054 569.784 452.624 581.942 408.895V408.903Z" fill="#27FF27"/>
<path d="M623.294 420.081L669.311 432.516C653.04 492.77 625.478 539.992 581.133 584.176L546.698 550.152C582.171 515.294 609.168 471.112 623.294 420.082V420.081Z" fill="#00FF00"/>
<path d="M365.236 366.309L581.346 583.401C537.003 627.581 491.756 653.593 431.271 669.677L352.613 373.583C358.587 371.975 360.874 370.651 365.242 366.301L365.236 366.309Z" fill="#DCFFED"/>
<path d="M395.806 397.025L581.346 583.4C537.003 627.581 491.756 653.593 431.271 669.677L363.739 415.458C375.725 411.94 386.747 405.604 395.803 397.017L395.806 397.025Z" fill="#B6FFD9"/>
<path d="M426.036 427.381L581.346 583.4C537.003 627.581 491.756 653.593 431.271 669.677L374.744 456.879C393.99 451.413 411.647 441.256 426.034 427.374L426.036 427.381Z" fill="#92FFC6"/>
<path d="M456.285 457.756L581.346 583.4C537.001 627.581 491.756 653.593 431.271 669.677L385.749 498.313C412.254 490.899 436.548 476.922 456.285 457.743V457.756Z" fill="#6EFFB3"/>
<path d="M486.515 488.132L581.346 583.4C537.003 627.581 491.756 653.593 431.271 669.677L396.753 539.738C430.519 530.376 461.448 512.597 486.517 488.123L486.515 488.132Z" fill="#4AFFA0"/>
<path d="M516.743 518.508L581.344 583.4C537.001 627.581 491.754 653.593 431.269 669.677L407.755 581.159C448.761 569.868 486.364 548.249 516.743 518.498V518.508Z" fill="#27FF8D"/>
<path d="M546.977 548.864L581.346 583.4C537.003 627.581 491.756 653.593 431.271 669.677L418.76 622.582C467.026 609.361 511.265 583.922 546.979 548.856L546.977 548.864Z" fill="#00FF80"/>
<path d="M353.399 373.779L432.447 669.987C371.963 686.066 316.915 686.007 256.684 669.73L336.278 374.959C341.855 376.075 347.773 375.621 353.407 373.787L353.399 373.779Z" fill="#DCFFFE"/>
<path d="M364.497 415.484L432.445 669.987C371.961 686.065 316.913 686.007 256.682 669.73L324.982 416.796C337.876 419.766 351.866 419.236 364.495 415.491L364.497 415.484Z" fill="#B6FFFD"/>
<path d="M375.518 456.905L432.438 669.968C371.953 686.047 316.906 685.988 256.674 669.711L313.805 458.142C334.015 463.098 355.851 462.549 375.513 456.913L375.518 456.905Z" fill="#92FFFC"/>
<path d="M386.54 498.345L432.436 669.995C371.951 686.073 316.904 686.015 256.672 669.738L302.622 499.573C330.111 506.495 359.831 505.871 386.525 498.362L386.54 498.345Z" fill="#6EFFFB"/>
<path d="M397.562 539.747L432.436 669.98C371.951 686.058 316.904 686 256.672 669.722L291.451 540.929C326.256 549.819 363.822 549.138 397.549 539.738L397.562 539.747Z" fill="#4AFFFA"/>
<path d="M408.51 581.433L432.435 669.978C371.95 686.056 316.903 685.998 256.671 669.72L280.273 582.311C324.172 593.848 367.598 592.694 408.51 581.46V581.433Z" fill="#27FFF9"/>
<path d="M419.512 622.874L432.441 669.993C371.955 686.072 316.909 686.013 256.678 669.736L269.109 623.698C320.305 637.184 371.577 635.973 419.521 622.885L419.512 622.874Z" fill="#00FFFF"/>
<path d="M318.198 366.214C322.186 369.819 327.818 372.796 333.364 374.296C334.07 374.487 336.251 375.009 336.263 374.966L256.668 669.736C196.441 653.459 147.683 625.465 103.516 581.103L318.208 366.224L318.198 366.214Z" fill="#DCEFFF"/>
<path d="M287.533 396.835C296.716 405.634 308.624 412.449 321.766 416.001C322.682 416.249 323.144 416.334 324.978 416.795L256.677 669.728C196.45 653.451 147.692 625.457 103.525 581.095L287.533 396.837V396.835Z" fill="#B6DEFF"/>
<path d="M257.209 427.098C271.524 441.045 289.929 451.784 310.585 457.367C311.504 457.615 311.969 457.689 313.801 458.162L256.67 669.73C196.443 653.453 147.685 625.459 103.518 581.097L257.22 427.101L257.209 427.098Z" fill="#92CEFF"/>
<path d="M226.865 457.378C246.31 476.476 271.231 491.117 299.41 498.731C300.325 498.979 300.788 499.083 302.616 499.56L256.666 669.725C196.439 653.447 147.681 625.453 103.514 581.091L226.873 457.376L226.865 457.378Z" fill="#6EBEFF"/>
<path d="M288.252 540.107C289.169 540.357 289.634 540.457 291.462 540.937L256.683 669.73C196.456 653.453 147.698 625.459 103.531 581.097L197.008 487.784C221.585 512.013 252.552 530.454 288.265 540.1L288.252 540.107Z" fill="#4AADFF"/>
<path d="M277.533 581.604C278.145 581.77 278.459 581.835 280.285 582.323L256.683 669.732C196.456 653.455 147.698 625.461 103.531 581.099L166.927 517.982C196.647 547.468 234.193 569.881 277.525 581.589L277.533 581.604Z" fill="#279EFF"/>
<path d="M266.36 622.968C266.974 623.135 267.288 623.197 269.114 623.687L256.684 669.725C196.456 653.448 147.699 625.454 103.532 581.091L136.56 548.21C171.403 582.898 215.49 609.245 266.346 622.976L266.36 622.968Z" fill="#0080FF"/>
<path d="M308.29 350.913C309.884 356.877 313.85 361.823 318.2 366.201L102.733 580.872C58.5718 536.508 28.3871 490.11 12.3098 429.6L308.296 350.919L308.29 350.913Z" fill="#DCDCFF"/>
<path d="M266.433 362.053C270.291 375.247 277.566 387.263 287.509 396.802L102.75 580.885C58.5887 536.521 28.404 490.124 12.3267 429.613L266.437 362.053H266.433Z" fill="#B6B6FF"/>
<path d="M225.03 373.061C230.823 393.514 241.924 412.169 257.16 427.037L102.749 580.885C58.5873 536.521 28.4026 490.124 12.3253 429.613L225.051 373.061H225.03Z" fill="#9292FF"/>
<path d="M183.608 384.069C191.338 411.782 206.249 437.098 226.782 457.296L102.743 580.884C58.5811 536.52 28.3965 490.122 12.3192 429.612L183.604 384.067L183.608 384.069Z" fill="#6E6EFF"/>
<path d="M142.204 395.077C151.868 430.05 170.598 462.016 196.429 487.54L102.744 580.883C58.5824 536.519 28.3978 490.122 12.3205 429.611L142.202 395.075L142.204 395.077Z" fill="#4A4AFF"/>
<path d="M100.801 406.084C112.403 448.317 134.95 486.931 166.072 517.789L102.746 580.881C58.5846 536.517 28.3999 490.12 12.3226 429.609L100.82 406.081L100.801 406.084Z" fill="#2727FF"/>
<path d="M59.3988 417.092C72.9371 466.584 99.2971 511.85 135.717 548.032L102.749 580.877C58.5877 536.513 28.4031 490.116 12.3258 429.605L59.4006 417.084L59.3988 417.092Z" fill="#0000FF"/>
<path d="M306.912 334.572C305.8 340.15 306.266 346.072 308.092 351.7L12.0115 430.784C-4.06015 370.272 -4.00156 315.201 12.2686 254.945L306.912 334.572Z" fill="#ECDCFF"/>
<path d="M265.093 323.28C262.125 336.193 262.648 350.191 266.394 362.812L12 430.79C-4.07159 370.277 -4.01294 315.206 12.2572 254.951L265.082 323.286L265.093 323.28Z" fill="#D8B6FF"/>
<path d="M223.746 312.102C218.808 332.319 219.36 354.176 224.988 373.842L12.0169 430.788C-4.05472 370.275 -3.99608 315.204 12.2741 254.949L223.733 312.106L223.746 312.102Z" fill="#C492FF"/>
<path d="M182.362 300.905C175.452 328.425 176.078 358.148 183.589 384.86L12.0132 430.777C-4.05846 370.264 -3.99986 315.193 12.2703 254.938L182.345 300.898L182.362 300.905Z" fill="#B16EFF"/>
<path d="M140.996 289.727C132.112 324.551 132.782 362.131 142.178 395.886L12.0034 430.775C-4.06824 370.262 -4.00966 315.191 12.2605 254.936L141.008 289.718L140.996 289.727Z" fill="#9E4AFF"/>
<path d="M99.6316 278.549C88.1219 322.46 89.2883 365.902 100.509 406.841L12.0042 430.777C-4.06742 370.264 -4.00883 315.193 12.2613 254.938L99.624 278.542L99.6316 278.549Z" fill="#8B27FF"/>
<path d="M58.2841 267.371C44.8025 318.586 46.0143 369.869 59.1064 417.838L12.0108 430.775C-4.06084 370.262 -4.00226 315.191 12.2679 254.936L58.2841 267.381V267.371Z" fill="#8000FF"/>
<path d="M307.572 331.678C307.381 332.385 306.859 334.568 306.903 334.579L12.2593 254.951C28.5294 194.695 56.5135 145.915 100.855 101.732L315.679 316.365C312.087 320.356 309.062 326.125 307.568 331.685L307.572 331.678Z" fill="#FEDCFF"/>
<path d="M265.885 320.065C265.637 320.984 265.552 321.444 265.091 323.278L12.2663 254.951C28.5365 194.695 56.5186 145.917 100.862 101.732L285.151 285.716C276.436 294.87 269.422 306.994 265.887 320.063L265.885 320.065Z" fill="#FDB6FF"/>
<path d="M224.539 308.887C224.291 309.802 224.219 310.265 223.746 312.096L12.2686 254.943C28.5388 194.687 56.5228 145.907 100.864 101.725L254.918 255.363C241.041 269.661 230.095 288.291 224.537 308.888L224.539 308.887Z" fill="#FC92FF"/>
<path d="M183.173 297.708C182.927 298.624 182.823 299.08 182.345 300.909L12.2535 254.941C28.5237 194.685 56.5077 145.905 100.849 101.723L224.643 224.989C205.624 244.432 190.783 269.569 183.183 297.712L183.173 297.708Z" fill="#FB6EFF"/>
<path d="M141.827 286.531C141.579 287.444 141.481 287.9 140.999 289.727L12.2614 254.935C28.5315 194.68 56.5156 145.9 100.857 101.717L194.405 194.623C170.225 219.211 151.471 250.873 141.848 286.544L141.827 286.531Z" fill="#FA4AFF"/>
<path d="M100.348 275.826C100.184 276.433 100.121 276.734 99.6335 278.562L12.2614 254.951C28.5315 194.695 56.5155 145.915 100.857 101.732L164.16 164.28C134.686 194.011 112.075 232.443 100.373 275.812L100.348 275.826Z" fill="#F927FF"/>
<path d="M58.9826 264.647C58.82 265.255 58.7594 265.555 58.2698 267.382L12.2517 254.947C28.5219 194.691 56.7176 145.132 101.059 100.949L133.907 133.92C99.2722 168.787 72.7477 213.734 59.0033 264.63L58.9826 264.647Z" fill="#FF00FF"/>
</svg>
