<svg xmlns="http://www.w3.org/2000/svg" width="201" height="201" viewBox="0 0 201 201">
  <g fill="currentColor">
    <path d="M180.875,40 L170.8125,40 L170.8125,120.5 C170.8125,126.034375 166.284375,130.5625 160.75,130.5625 L40,130.5625 L40,140.625 C40,151.69375 49.05625,160.75 60.125,160.75 L160.75,160.75 L201,201 L201,60.125 C201,49.05625 191.94375,40 180.875,40 Z"/>
    <path d="M130.866667,0 C141.94,0 151,9.06 151,20.1333333 L151,20.1333333 L151,90.6 C151,101.673333 141.94,110.733333 130.866667,110.733333 L130.866667,110.733333 L40.2666667,110.733333 L0,151 L0,20.1333333 C0,9.06 9.06,0 20.1333333,0 L20.1333333,0 Z M108.906968,19.3364286 L63.7048117,64.5414116 L45.7784865,46.5980367 L34.3427273,57.9955452 L63.7048117,87.3364286 L120.342727,30.7339371 L108.906968,19.3364286 Z"/>
  </g>
</svg>
